<?xml version="1.0" encoding="UTF-8"?>
<svg width="97px" height="16px" viewBox="0 0 97 16" version="1.1" xmlns="http://www.w3.org/2000/svg" xmlns:xlink="http://www.w3.org/1999/xlink">
    <title>019A65AB-08D8-4EF3-B285-C1531F1DD155</title>
    <defs>
        <polygon id="path-1" points="0.148571817 0.221598642 12.0005786 0.221598642 12.0005786 11.24618 0.148571817 11.24618"></polygon>
        <polygon id="path-3" points="0.143559932 0.115566723 7.37015959 0.115566723 7.37015959 11.1786295 0.143559932 11.1786295"></polygon>
    </defs>
    <g id="Anasayfa" stroke="none" stroke-width="1" fill="none" fill-rule="evenodd">
        <g transform="translate(-733.000000, -4108.000000)" id="footer">
            <g transform="translate(0.000000, 3646.000000)">
                <g id="markalar" transform="translate(0.000000, 424.000000)">
                    <g id="didim" transform="translate(733.000000, 38.000000)">
                        <path d="M9.16646791,7.79333379 C9.16646791,10.0912217 7.90885161,12.0534357 5.56402309,12.0534357 L4.90343226,12.0534357 C4.37046112,12.0534357 4.05092292,11.643928 4.05092292,11.1767226 L4.05092292,3.27677012 C4.26362241,3.23789745 4.54062071,3.19926927 4.68975484,3.19926927 L5.54299762,3.19926927 C7.54677351,3.19926927 9.16646791,5.12481087 9.16646791,7.79333379 M13.2165596,7.50117759 C13.2165596,2.92349338 9.33736095,0.219031579 5.73467165,0.219031579 L4.20005705,0.219031579 C3.04879049,0.219031579 1.08731002,0.491629202 9.77928693e-05,0.861286248 L9.77928693e-05,11.7803491 C9.77928693e-05,14.1180876 2.00460713,15.0334289 4.64745942,15.0334289 L6.09674975,15.0334289 C10.3177345,15.0334289 13.2165596,11.5916088 13.2165596,7.50117759" id="Fill-1" fill="#9CA1AE"></path>
                        <path d="M17.4151253,3.3620944 C18.4918248,3.3620944 19.3526465,2.61104516 19.3526465,1.68079049 C19.3526465,0.750535823 18.4918248,-2.44482173e-05 17.4151253,-2.44482173e-05 C16.3386703,-2.44482173e-05 15.4580455,0.750535823 15.4580455,1.68079049 C15.4580455,2.61104516 16.3386703,3.3620944 17.4151253,3.3620944" id="Fill-3" fill="#9CA1AE"></path>
                        <path d="M21.1679267,12.1792217 C20.0379301,12.1792217 19.5479878,11.88731 19.5479878,10.9328516 L19.5479878,6.99888896 C19.5479878,5.05085501 18.8015837,4.44673956 16.4992951,4.44673956 L15.4974071,4.44673956 L15.4974071,11.4785358 C15.4974071,14.0096598 17.1816448,14.9841657 19.3343104,14.9841657 C20.5919267,14.9841657 21.6588469,14.5560774 21.6588469,13.2703457 L21.6588469,12.1792217 L21.1679267,12.1792217 Z" id="Fill-5" fill="#9CA1AE"></path>
                        <path d="M39.6631008,3.3620944 C40.7407783,3.3620944 41.601111,2.61104516 41.601111,1.68079049 C41.601111,0.750535823 40.7407783,-2.44482173e-05 39.6631008,-2.44482173e-05 C38.5871348,-2.44482173e-05 37.706999,0.750535823 37.706999,1.68079049 C37.706999,2.61104516 38.5871348,3.3620944 39.6631008,3.3620944" id="Fill-7" fill="#9CA1AE"></path>
                        <path d="M43.4168801,12.1792217 C42.2868835,12.1792217 41.7966968,11.88731 41.7966968,10.9328516 L41.7966968,6.99888896 C41.7966968,5.05085501 41.0505372,4.44673956 38.7475151,4.44673956 L37.7458716,4.44673956 L37.7458716,11.4785358 C37.7458716,14.0096598 39.4298649,14.9841657 41.5832638,14.9841657 C42.8408801,14.9841657 43.9070669,14.5560774 43.9070669,13.2703457 L43.9070669,12.1792217 L43.4168801,12.1792217 Z" id="Fill-9" fill="#9CA1AE"></path>
                        <path d="M31.2081739,9.69714092 C31.2081739,11.3725772 30.5470941,12.2683599 29.2894778,12.2683599 C27.8184285,12.2683599 26.7529752,11.4112054 26.7529752,9.30768081 C26.7529752,7.67160611 27.6695389,6.63866893 28.7567511,6.63866893 C30.2067749,6.63866893 31.2081739,7.3014601 31.2081739,9.69714092 M35.2372401,9.19106282 L35.2372401,2.97705942 C35.2372401,1.16617997 34.3624829,0.386526316 32.7432774,0.386526316 L31.2934981,0.386526316 L31.2934981,5.21700509 C30.8668767,4.37940917 29.7583946,3.77651613 28.2660754,3.77651613 C25.1543063,3.77651613 22.7241535,6.01572835 22.7241535,9.6191511 C22.7241535,12.521399 25.3882757,15.1119321 28.8418309,15.1119321 C33.5099735,15.1119321 35.2372401,13.0663497 35.2372401,9.19106282" id="Fill-11" fill="#9CA1AE"></path>
                        <path d="M63.6519606,14.8281616 L63.6519606,9.00484075 C63.6519606,5.65396808 61.6271593,3.80421596 58.2166329,3.80421596 C56.5321508,3.80421596 55.1041304,4.89509542 54.5501338,5.71288829 C54.1658078,4.83617521 52.7803273,3.80421596 50.9469555,3.80421596 C47.2166465,3.80421596 45.2554105,5.79063362 45.2554105,8.9068034 L45.2554105,12.6664503 C45.2554105,14.0301718 46.0866499,14.8281616 47.8989963,14.8281616 L49.3062357,14.8281616 L49.3062357,8.67332292 C49.3062357,7.34871851 49.753638,6.82308183 50.8829012,6.82308183 C51.9483545,6.82308183 52.4820591,7.34871851 52.4820591,8.61489168 L52.4820591,12.6664503 C52.4820591,14.3416421 53.3565718,14.8281616 54.9980251,14.8281616 L56.4042866,14.8281616 L56.4042866,8.65351986 C56.4042866,7.58244346 56.7881236,6.82308183 57.9178757,6.82308183 C59.0904122,6.82308183 59.6018689,7.32940441 59.6018689,8.71170662 L59.6018689,12.6664503 C59.6018689,13.9910547 60.0918112,14.8281616 62.2454547,14.8281616 L63.6519606,14.8281616 Z" id="Fill-13" fill="#9CA1AE"></path>
                        <path d="M65.9757392,4.52482716 L65.9757392,11.1666744 C65.9757392,14.1075504 68.1286492,14.984019 70.1324251,14.984019 C72.2425508,14.984019 73.1376,14.1667151 73.1376,13.270199 L73.1376,11.8284876 L73.0312503,11.8284876 C72.6048733,11.9847117 72.1572265,12.062457 71.1983674,12.062457 C70.4089345,12.062457 69.9194812,11.6341243 69.9194812,10.9133908 L69.9194812,7.03688149 L71.3687715,7.03688149 C72.2850907,7.03688149 73.3512774,6.33644007 73.3512774,5.42060985 L73.3512774,4.11556401 L69.9194812,4.11556401 L69.9194812,1.50522784 L69.4926153,1.50522784 C68.6398615,1.50522784 67.9152163,1.85654873 67.3822452,2.22645025 C66.5935457,2.77140102 65.9757392,3.55105467 65.9757392,4.52482716" id="Fill-15" fill="#9CA1AE"></path>
                        <g id="Group-19" transform="translate(74.567063, 3.894039)">
                            <mask id="mask-2" fill="white">
                                <use xlink:href="#path-1"></use>
                            </mask>
                            <g id="Clip-18"></g>
                            <path d="M12.0005786,6.22070221 L12.0005786,2.40286859 C12.0005786,0.845028183 11.1047959,0.221598642 9.48534601,0.221598642 L7.90794703,0.221598642 L7.90794703,6.0850146 C7.90794703,7.77903158 7.14051749,8.28510968 6.18068048,8.28510968 C5.07293175,8.28510968 4.26222886,7.79859015 4.26222886,6.22070221 L4.26222886,2.40286859 C4.26222886,0.766793888 3.49528829,0.221598642 1.72572632,0.221598642 L0.148571817,0.221598642 L0.148571817,6.1233983 C0.148571817,9.55152733 2.21591307,11.2462778 6.01052088,11.2462778 C9.61223226,11.2462778 12.0005786,9.64883124 12.0005786,6.22070221" id="Fill-17" fill="#9CA1AE" mask="url(#mask-2)"></path>
                        </g>
                        <g id="Group-22" transform="translate(88.747029, 3.649557)">
                            <mask id="mask-4" fill="white">
                                <use xlink:href="#path-3"></use>
                            </mask>
                            <g id="Clip-21"></g>
                            <path d="M7.37020849,3.23222547 L7.37020849,1.8685039 C7.37020849,0.875172835 6.43237487,0.115566723 4.40659559,0.115566723 C1.74222886,0.115566723 0.143559932,1.8301202 0.143559932,3.9915871 L0.143559932,8.64677216 C0.143559932,10.4388265 1.20974669,11.1786295 2.95730526,11.1786295 L4.06603192,11.1786295 L4.06603192,4.77075178 C4.06603192,3.46570594 4.83272801,3.01732564 5.81383497,3.01732564 C6.34729508,3.01732564 6.73113209,3.05644278 7.24258879,3.23222547 L7.37020849,3.23222547 Z" id="Fill-20" fill="#9CA1AE" mask="url(#mask-4)"></path>
                        </g>
                    </g>
                </g>
            </g>
        </g>
    </g>
</svg>