<?xml version="1.0" encoding="UTF-8"?>
<svg width="95px" height="24px" viewBox="0 0 95 24" version="1.1" xmlns="http://www.w3.org/2000/svg" xmlns:xlink="http://www.w3.org/1999/xlink">
    <title>C8200E00-6B1C-4156-AFB7-C9A9A03E9AD5</title>
    <defs>
        <polygon id="path-1" points="0 23.9339493 94.9532462 23.9339493 94.9532462 -0.000135211268 0 -0.000135211268"></polygon>
    </defs>
    <g id="Anasayfa" stroke="none" stroke-width="1" fill="none" fill-rule="evenodd">
        <g transform="translate(-860.000000, -4107.000000)">
            <rect fill="#FFFFFF" x="0" y="0" width="1440" height="4427"></rect>
            <g id="footer" transform="translate(0.000000, 3646.000000)">
                <g id="markalar" transform="translate(0.000000, 424.000000)">
                    <rect id="Rectangle-4-Copy" stroke="#EBF1FA" fill="#F6F9FD" x="-0.5" y="-0.5" width="1441" height="91"></rect>
                    <g id="mice-copy" transform="translate(860.000000, 37.000000)">
                        <path d="M8.76569362,7.59140282 C8.72858116,6.45698028 8.32000669,6.23320563 5.9984535,6.23320563 C4.01124985,6.23320563 3.47278176,6.49382535 3.47278176,7.34971268 C3.47278176,7.40548732 3.47278176,7.49844507 3.50989422,7.59140282 L8.76569362,7.59140282 Z M3.50989422,9.65675493 C3.47278176,9.76830423 3.47278176,9.8987831 3.47278176,9.99207887 C3.47278176,10.5684169 3.67723769,10.978107 3.99269362,11.1826141 C4.36415562,11.4057127 4.86584863,11.4618254 6.24002188,11.4618254 C8.28289422,11.4618254 8.877031,11.2569803 8.877031,10.6241915 C8.877031,10.5684169 8.877031,10.4940507 8.85847477,10.4196845 L12.1827392,10.4196845 C12.1827392,11.4993465 11.9971769,12.1500507 11.421259,12.6895437 C11.0869094,13.0617127 10.5113289,13.3409239 9.89863587,13.4524732 C9.24849301,13.6015437 7.20562067,13.7316845 5.9427848,13.7316845 C3.23155076,13.7316845 2.26561459,13.5643606 1.28145957,12.7642479 C0.297304559,12.0013183 6.74772036e-05,11.0521352 6.74772036e-05,8.74509296 C6.74772036e-05,6.79129014 0.167073556,5.93574085 0.705879027,5.24717746 C1.44846565,4.31658592 2.65563283,3.96334648 5.25552948,3.96334648 C8.24578176,3.96334648 9.32271793,4.05630423 10.2886541,4.46565634 C11.6442711,4.9679662 12.1827392,6.12165634 12.1827392,8.39151549 L12.1827392,9.65675493 L3.50989422,9.65675493 Z" id="Fill-1" fill="#9CA1AE"></path>
                        <path d="M13.2409842,6.64269296 L13.2409842,4.11221408 L15.0051757,4.11221408 L15.0051757,1.87953803 L18.5521149,1.87953803 L18.5521149,4.11221408 L24.1051514,4.11221408 L24.1051514,6.64269296 L18.5521149,6.64269296 L18.5521149,10.2896789 C18.5521149,10.9032 18.9421331,11.1269746 19.963738,11.1269746 C21.1152365,11.1269746 21.4678049,10.8105803 21.4678049,9.80528451 C21.4678049,9.73125634 21.4678049,9.50815775 21.4492486,9.35908732 L24.5322821,9.35908732 C24.5508383,9.60111549 24.5508383,9.91750986 24.5508383,10.0290592 C24.5508383,12.7457915 23.25089,13.7318197 19.6665009,13.7318197 C16.3236802,13.7318197 15.0051757,12.7640451 15.0051757,10.3265239 L15.0051757,6.64269296 L13.2409842,6.64269296 Z" id="Fill-3" fill="#9CA1AE"></path>
                        <path d="M34.6907052,6.86616338 C34.5419179,6.36351549 34.0591185,6.21444507 32.5550517,6.21444507 C31.1248723,6.21444507 30.1221611,6.27021972 29.8805927,6.36351549 C29.6950304,6.43754366 29.5651368,6.64272676 29.5651368,6.90300845 C29.5651368,7.14469859 29.6950304,7.29410704 29.9362614,7.36813521 C30.2334985,7.44283944 31.2365471,7.49827606 32.5179392,7.49827606 L33.2605258,7.49827606 C36.0092097,7.51720563 36.77069,7.62875493 37.4950578,8.00058592 C38.4792128,8.48430423 38.8135623,9.17286761 38.8135623,10.5871775 C38.8135623,13.006107 37.7362888,13.7318535 34.0776748,13.7318535 L30.2706109,13.7318535 C27.2250274,13.7318535 25.8879666,12.8573746 25.8879666,10.8849803 L25.8879666,10.6432901 L29.5651368,10.6432901 C29.583693,11.3315155 30.1592736,11.4991775 32.4808267,11.4991775 C34.6721489,11.4991775 35.1363921,11.350107 35.1363921,10.7359099 C35.1363921,10.1778254 34.8020426,10.0473465 33.5577629,10.0287549 L30.4750669,9.97298028 C28.4507508,9.95472676 27.7449392,9.84317746 27.0951337,9.45207887 C26.296541,8.98695211 25.9436353,8.14999437 25.9436353,6.86616338 C25.9436353,5.69354366 26.2594286,5.00498028 26.9277903,4.57737465 C27.7078267,4.11224789 28.7294316,3.96317746 31.3664407,3.96317746 C37.3091581,3.96317746 38.2005319,4.33534648 38.2750942,6.86616338 L34.6907052,6.86616338 Z" id="Fill-5" fill="#9CA1AE"></path>
                        <path d="M41.7848872,4.11211268 L43.2707353,4.11211268 L43.2707353,5.26580282 C44.236334,4.13070423 44.7562459,3.9444507 47.5420422,3.9444507 C49.7148082,3.9444507 50.3835073,4.05633803 51.1449875,4.54005634 C51.5906745,4.80067606 51.8319055,5.15391549 52.1291426,5.74952113 C52.7975043,4.42884507 54.023565,3.9444507 56.6420179,3.9444507 C60.2260696,3.9444507 61.7304739,4.94974648 61.7304739,7.42411268 L61.7304739,13.5829859 L60.1704009,13.5829859 L60.1704009,7.74050704 C60.1704009,6.64259155 60.0776198,6.30760563 59.6133766,5.93577465 C59.037796,5.47030986 58.1275286,5.24721127 56.4004495,5.24721127 C54.5991456,5.24721127 53.7634404,5.48890141 53.2435286,6.08450704 C52.8720666,6.49385915 52.6676106,7.07053521 52.6676106,7.72191549 L52.6676106,13.5829859 L51.1075377,13.5829859 L51.1075377,7.72191549 C51.1075377,6.88461972 50.9034191,6.27042254 50.4577322,5.84247887 C50.0306015,5.45171831 48.9718842,5.24721127 47.1891365,5.24721127 C44.3476714,5.24721127 43.3449602,5.93577465 43.3449602,7.87064789 L43.3449602,13.5829859 L41.7848872,13.5829859 L41.7848872,4.11211268 Z" id="Fill-7" fill="#9CA1AE"></path>
                        <mask id="mask-2" fill="white">
                            <use xlink:href="#path-1"></use>
                        </mask>
                        <g id="Clip-10"></g>
                        <path d="M64.7386413,13.5828507 L66.2798207,13.5828507 L66.2798207,4.11197746 L64.7386413,4.11197746 L64.7386413,13.5828507 Z M64.7386413,1.91648451 L66.2798207,1.91648451 L66.2798207,-0.000135211268 L64.7386413,-0.000135211268 L64.7386413,1.91648451 Z" id="Fill-9" fill="#9CA1AE" mask="url(#mask-2)"></path>
                        <path d="M79.1678316,7.47981972 C79.1492754,5.6003831 78.5176888,5.24748169 75.0449745,5.24748169 C72.8911021,5.24748169 71.9440596,5.39587606 71.3681416,5.86100282 C70.8482298,6.28928451 70.6994426,6.90314366 70.6994426,8.70787606 C70.6994426,10.6241577 70.8293362,11.2569465 71.3124729,11.7220732 C71.9440596,12.3180169 72.7423149,12.4478197 74.8411933,12.4478197 C77.1991842,12.4478197 78.1280079,12.354862 78.6668134,11.9455099 C79.1678316,11.610862 79.2980626,11.0149183 79.2980626,10.5126085 L79.2980626,10.1404394 L80.765017,10.1404394 C80.765017,11.4617915 80.6162298,12.0942423 80.1334304,12.6337352 C79.3351751,13.5643268 78.3506827,13.7502423 74.8034061,13.7502423 C71.9440596,13.7502423 71.1636857,13.6015099 70.2537556,12.894693 C69.3441629,12.2057915 69.0465884,11.1268056 69.0465884,8.70787606 C69.0465884,6.81018592 69.2135945,5.97255211 69.7891751,5.24748169 C70.5506553,4.26111549 71.7578225,3.9443831 74.6920687,3.9443831 C78.2025702,3.9443831 79.1492754,4.13063662 79.9296492,5.07948169 C80.4306675,5.63790423 80.5980109,6.27035493 80.5980109,7.27531268 L80.5980109,7.47981972 L79.1678316,7.47981972 Z" id="Fill-11" fill="#9CA1AE" mask="url(#mask-2)"></path>
                        <path d="M93.374617,7.87068169 C93.374617,6.8099493 93.2632796,6.36341408 92.8547052,5.99090704 C92.2416748,5.47000563 91.1647386,5.22865352 88.9545228,5.22865352 C85.1289027,5.22865352 84.4230912,5.69378028 84.4230912,7.87068169 L93.374617,7.87068169 Z M94.9532462,10.7175549 L94.9532462,10.8662873 C94.9532462,11.7221746 94.730234,12.3177803 94.2474347,12.782907 C93.8945289,13.117893 93.3003921,13.4153577 92.7059179,13.5644282 C92.2416748,13.6573859 90.4218146,13.7503437 88.9545228,13.7503437 C85.6302584,13.7503437 85.017228,13.6573859 84.0519666,12.8572732 C83.1045866,12.0943437 82.7887933,11.0150197 82.7887933,8.54031549 C82.7887933,6.67980845 83.0303617,5.78673803 83.6990608,5.1167662 C84.6089909,4.26087887 85.9460517,3.94448451 88.8431854,3.94448451 C92.0561125,3.94448451 93.4117295,4.31665352 94.2103222,5.37738592 C94.7859027,6.12172394 94.9532462,6.97761127 94.9532462,8.80093521 L94.9532462,9.17310423 L84.404535,9.17310423 L84.404535,9.60104789 C84.404535,10.754738 84.6646596,11.4804845 85.2587964,11.8712451 C85.9460517,12.3549634 86.7446444,12.4479211 89.5118845,12.4479211 C91.8702128,12.4479211 92.4832432,12.3549634 92.9289301,11.9084282 C93.2632796,11.6106254 93.374617,11.3128225 93.4302857,10.7175549 L94.9532462,10.7175549 Z" id="Fill-12" fill="#9CA1AE" mask="url(#mask-2)"></path>
                        <polygon id="Fill-13" fill="#9CA1AE" mask="url(#mask-2)" points="12.6494116 19.4692732 12.6494116 21.2709634 12.8599404 21.2709634 14.1494298 20.4404282 14.7459283 20.4404282 13.2064359 21.433893 15.0485635 22.6771606 14.447679 22.6771606 12.8511684 21.5961465 12.6494116 21.5961465 12.6494116 22.6771606 12.285372 22.6771606 12.285372 19.4692732"></polygon>
                        <path d="M16.6761474,20.4404282 L16.6761474,21.8773859 C16.6761474,22.0751324 16.7331657,22.1981746 16.8691322,22.2904563 C16.9963267,22.3783437 17.1586094,22.4091042 17.7068617,22.4091042 C18.2112538,22.4091042 18.3954666,22.3563718 18.5577492,22.1762028 C18.6586277,22.0619493 18.6937158,21.9476958 18.6937158,21.7235831 L18.6937158,20.4404282 L19.0621413,20.4404282 L19.0621413,22.6771606 L18.7112599,22.6771606 L18.7112599,22.2904563 C18.5402052,22.6376113 18.3165182,22.7167099 17.5840532,22.7167099 C16.9743967,22.7167099 16.6980775,22.6551887 16.5007067,22.4530479 C16.3778982,22.334738 16.3077219,22.1278648 16.3077219,21.8773859 L16.3077219,20.4404282 L16.6761474,20.4404282 Z" id="Fill-14" fill="#9CA1AE" mask="url(#mask-2)"></path>
                        <path d="M20.8125675,20.4404282 L21.1634489,20.4404282 L21.1634489,20.7656113 C21.3081875,20.4975549 21.5406465,20.4008789 21.904686,20.4008789 L22.2643395,20.4008789 C22.623993,20.4008789 22.8871541,20.4887662 23.0099626,20.6513577 C23.1327711,20.7963718 23.1547012,20.9150197 23.1547012,21.4555268 L22.8169778,21.4555268 L22.8169778,21.2621746 C22.8169778,20.8139493 22.6590812,20.7084845 22.1108289,20.7084845 L21.8257377,20.7084845 C21.413452,20.7084845 21.180993,20.8886535 21.180993,21.2973296 L21.180993,22.6771606 L20.8125675,22.6771606 L20.8125675,20.4404282 Z" id="Fill-15" fill="#9CA1AE" mask="url(#mask-2)"></path>
                        <path d="M25.063024,20.4404282 L25.063024,21.8773859 C25.063024,22.0751324 25.1200422,22.1981746 25.2560088,22.2904563 C25.3832033,22.3783437 25.545486,22.4091042 26.0937383,22.4091042 C26.5981304,22.4091042 26.7823432,22.3563718 26.9446258,22.1762028 C27.0455043,22.0619493 27.0805924,21.9476958 27.0805924,21.7235831 L27.0805924,20.4404282 L27.4490179,20.4404282 L27.4490179,22.6771606 L27.0981365,22.6771606 L27.0981365,22.2904563 C26.9270818,22.6376113 26.7033948,22.7167099 25.9709298,22.7167099 C25.3612733,22.7167099 25.0849541,22.6551887 24.8875833,22.4530479 C24.7647748,22.334738 24.6945985,22.1278648 24.6945985,21.8773859 L24.6945985,20.4404282 L25.063024,20.4404282 Z" id="Fill-16" fill="#9CA1AE" mask="url(#mask-2)"></path>
                        <path d="M29.1994441,20.4404282 L29.5503255,20.4404282 L29.5503255,20.7128789 C29.7783985,20.4448225 29.901207,20.4008789 30.5591097,20.4008789 C31.0722739,20.4008789 31.2305079,20.4272451 31.4099973,20.5414986 C31.5152617,20.6026817 31.5722799,20.6865127 31.6424562,20.8271324 C31.8003529,20.5151324 32.0898301,20.4008789 32.7082587,20.4008789 C33.5550976,20.4008789 33.9100277,20.6381746 33.9100277,21.2226254 L33.9100277,22.6771606 L33.5419395,22.6771606 L33.5419395,21.2973296 C33.5419395,21.038062 33.5200094,20.9589634 33.4100216,20.8710761 C33.2743924,20.7612169 33.0591401,20.7084845 32.6512404,20.7084845 C32.2257967,20.7084845 32.0284258,20.7656113 31.9056173,20.906231 C31.817897,21.002907 31.7696508,21.1391324 31.7696508,21.2929352 L31.7696508,22.6771606 L31.4012252,22.6771606 L31.4012252,21.2929352 C31.4012252,21.0951887 31.352979,20.9501746 31.2477146,20.8491042 C31.1468362,20.7568225 30.8968331,20.7084845 30.4757754,20.7084845 C29.8047146,20.7084845 29.5678696,20.8710761 29.5678696,21.3280901 L29.5678696,22.6771606 L29.1994441,22.6771606 L29.1994441,20.4404282 Z" id="Fill-17" fill="#9CA1AE" mask="url(#mask-2)"></path>
                        <path d="M35.9237836,21.899493 L35.9237836,21.9650704 C35.9237836,22.3389296 36.033434,22.4092394 36.6869508,22.4092394 C37.6124006,22.4092394 37.7352091,22.4048451 37.8580176,22.356507 C37.9632821,22.3166197 38.0071422,22.211493 38.0071422,22.0353803 C38.0071422,21.8203944 37.950124,21.7500845 37.7527532,21.7149296 C37.6431027,21.6970141 37.4413459,21.683831 36.8448474,21.683831 C36.1430845,21.683831 36.020276,21.6797746 35.8755374,21.6094648 C35.6693945,21.5083944 35.5992182,21.3586479 35.5992182,21.0246761 C35.5992182,20.5149296 35.8272912,20.4006761 36.8887076,20.4006761 C37.5597684,20.4006761 37.8448596,20.4405634 38.0510024,20.5412958 C38.2001271,20.616 38.2922334,20.7789296 38.2922334,20.9854648 C38.2922334,21.011831 38.2922334,21.0557746 38.2878474,21.0997183 L37.950124,21.0997183 C37.95451,21.0774085 37.95451,21.0469859 37.95451,21.0378592 C37.95451,20.9236056 37.9018778,20.8269296 37.8229295,20.7829859 C37.717665,20.7305915 37.5773125,20.7086197 37.1737988,20.7086197 C36.3053672,20.7086197 36.2351909,20.7218028 36.1036103,20.7745352 C36.0071179,20.8140845 35.9676438,20.9019718 35.9676438,21.060169 C35.9676438,21.3501972 36.020276,21.3765634 36.739583,21.3809577 L37.1825708,21.3809577 C37.8097714,21.3853521 38.0203003,21.4117183 38.1738109,21.5171831 C38.3053915,21.6094648 38.3799538,21.8028169 38.3799538,22.0532958 C38.3799538,22.3166197 38.3053915,22.4795493 38.1431088,22.5674366 C37.9325799,22.6904789 37.6825769,22.7168451 36.9106377,22.7168451 C36.1474705,22.7168451 35.9150116,22.6772958 35.7480055,22.5190986 C35.6299204,22.4092394 35.5772881,22.2463099 35.5772881,22.0090141 L35.5772881,21.899493 L35.9237836,21.899493 Z" id="Fill-18" fill="#9CA1AE" mask="url(#mask-2)"></path>
                        <path d="M40.3232973,22.0269296 C40.3232973,22.3696901 40.4373337,22.4224225 41.1127805,22.4224225 C42.2092851,22.4224225 42.3715678,22.3737465 42.3715678,22.0353803 C42.3715678,21.6534085 42.2403246,21.6094648 41.1961149,21.6094648 C40.4197897,21.6094648 40.3232973,21.6534085 40.3232973,22.0269296 L40.3232973,22.0269296 Z M42.3806772,22.4487887 C42.3105009,22.5542535 42.2622547,22.6025915 42.2005131,22.6377465 C42.1350602,22.6641127 42.0601605,22.6816901 41.9636681,22.6904789 C41.9066498,22.6948732 41.1785708,22.7121127 41.0426043,22.7121127 C40.4154036,22.7121127 40.3276833,22.6992676 40.1654006,22.5938028 C40.01189,22.488338 39.9417137,22.3034366 39.9417137,21.996169 C39.9417137,21.5171831 40.1390845,21.3322817 40.6610207,21.3322817 L41.5820845,21.3322817 C42.0601605,21.3322817 42.2271666,21.3941408 42.3715678,21.5918873 L42.3715678,21.3106479 C42.3715678,21.0557746 42.3455891,20.9195493 42.2271666,20.831662 C42.086814,20.7305915 41.954896,20.7086197 41.231203,20.7086197 C40.7048809,20.7086197 40.5820723,20.7305915 40.494352,20.8269296 C40.4373337,20.8840563 40.4197897,20.9547042 40.4197897,21.0953239 L40.0513641,21.0953239 C40.0513641,20.8140845 40.0952243,20.6863099 40.2092608,20.5811831 C40.3671574,20.436169 40.5820723,20.4006761 41.3715556,20.4006761 C42.1171787,20.4006761 42.3894492,20.4578028 42.578048,20.6555493 C42.7005191,20.7921127 42.7534888,20.9766761 42.7534888,21.2798873 L42.7534888,22.6772958 L42.3806772,22.6772958 L42.3806772,22.4487887 Z" id="Fill-19" fill="#9CA1AE" mask="url(#mask-2)"></path>
                        <polygon id="Fill-20" fill="#9CA1AE" mask="url(#mask-2)" points="44.5386657 22.6771606 44.9672371 22.6771606 44.9672371 19.4692732 44.5386657 19.4692732"></polygon>
                        <path d="M52.2016805,21.2360113 C52.1972945,20.7921803 52.0481699,20.7083493 51.2279845,20.7083493 C50.7192064,20.7083493 50.4955195,20.7435042 50.3595529,20.8533634 C50.2367444,20.9547718 50.2016562,21.0997859 50.2016562,21.5257014 C50.2016562,21.9783211 50.2323584,22.1280676 50.3463948,22.2379268 C50.4955195,22.3785465 50.6841182,22.409307 51.1800757,22.409307 C51.7367626,22.409307 51.9560635,22.3869972 52.0832581,22.2903211 C52.2016805,22.2115606 52.2327201,22.0709408 52.2327201,21.9519549 L52.2327201,21.8640676 L52.5788781,21.8640676 C52.5788781,22.1760676 52.5441274,22.3258141 52.4300909,22.4532507 C52.2543128,22.6550535 52.0437839,22.7077859 51.355179,22.7169127 L51.0700878,23.0552789 C51.1402641,23.0508845 51.1885103,23.0508845 51.2323705,23.0508845 C51.5218477,23.0508845 51.728328,23.1735887 51.728328,23.4548282 C51.728328,23.789138 51.4739389,23.9338141 51.0835833,23.9338141 C50.9209632,23.9338141 50.7458599,23.9165746 50.5920119,23.872631 L50.5920119,23.6393915 C50.7458599,23.6748845 50.9125286,23.692462 51.026565,23.692462 C51.2323705,23.692462 51.3511304,23.6221521 51.3511304,23.4727437 C51.3511304,23.3365183 51.2586866,23.2618141 51.0481578,23.2618141 C50.9563888,23.2618141 50.9253492,23.2618141 50.772176,23.2793915 L50.772176,23.0992225 L51.0876319,22.7169127 C50.4823614,22.7121803 50.3025347,22.6773634 50.0963918,22.5144338 C49.8814769,22.3521803 49.8113006,22.097307 49.8113006,21.5257014 C49.8113006,21.0774761 49.8507748,20.8797296 49.9870787,20.7083493 C50.1665681,20.4754479 50.4516593,20.4007437 51.1446502,20.4007437 C51.9736076,20.4007437 52.1972945,20.4446873 52.3815073,20.6688 C52.5002672,20.800969 52.539404,20.9500394 52.539404,21.1873352 L52.539404,21.2360113 L52.2016805,21.2360113 Z" id="Fill-21" fill="#9CA1AE" mask="url(#mask-2)"></path>
                        <path d="M55.9301672,20.0317521 L56.3117508,20.0317521 L56.3117508,19.5483718 L55.9301672,19.5483718 L55.9301672,20.0317521 Z M55.0091033,20.0317521 L55.3906869,20.0317521 L55.3906869,19.5483718 L55.0091033,19.5483718 L55.0091033,20.0317521 Z M54.7722584,20.7963718 C54.5792736,20.8842592 54.5222553,21.0732169 54.5222553,21.5082592 C54.5222553,21.926062 54.543848,22.0798648 54.6319058,22.202569 C54.7543769,22.3739493 54.9389271,22.4091042 55.6143739,22.4091042 C56.2591185,22.4091042 56.4386079,22.3783437 56.5789605,22.2553014 C56.7193131,22.1410479 56.7547386,21.9652732 56.7547386,21.4994704 C56.7547386,21.1567099 56.7284225,21.0073014 56.614386,20.8974423 C56.4740334,20.7480338 56.3029787,20.7084845 55.8249027,20.7084845 C55.1275258,20.7084845 54.925769,20.726062 54.7722584,20.7963718 L54.7722584,20.7963718 Z M56.9166839,20.6865127 C57.101234,20.8622873 57.1450942,21.038062 57.1450942,21.5434141 C57.1450942,22.0224 57.1100061,22.1849915 56.9784255,22.3695549 C56.7810547,22.6244282 56.5087842,22.7167099 55.9433252,22.7167099 C54.8161185,22.7167099 54.780693,22.7123155 54.5570061,22.5892732 C54.3903374,22.4969915 54.2547082,22.3387944 54.1889179,22.1498366 C54.1491064,22.0399775 54.1318997,21.8817803 54.1318997,21.578569 C54.1318997,21.0776113 54.1669878,20.9150197 54.3073404,20.7304563 C54.5222553,20.4580056 54.780693,20.4008789 55.736845,20.4008789 C56.3994711,20.4008789 56.6977204,20.4711887 56.9166839,20.6865127 L56.9166839,20.6865127 Z" id="Fill-22" fill="#9CA1AE" mask="url(#mask-2)"></path>
                        <polygon id="Fill-23" fill="#9CA1AE" mask="url(#mask-2)" points="58.6499033 22.3738817 60.6192255 20.7307268 58.7200796 20.7307268 58.7200796 20.4403606 61.1452103 20.4403606 61.1452103 20.7479662 59.1849976 22.3786141 61.1762498 22.3786141 61.1762498 22.677093 58.6499033 22.677093"></polygon>
                        <path d="M64.4309453,20.0317521 L64.8125289,20.0317521 L64.8125289,19.5483718 L64.4309453,19.5483718 L64.4309453,20.0317521 Z M63.5095441,20.0317521 L63.8911277,20.0317521 L63.8911277,19.5483718 L63.5095441,19.5483718 L63.5095441,20.0317521 Z M63.1455046,20.4404282 L63.1455046,21.8773859 C63.1455046,22.0751324 63.2025228,22.1981746 63.3388267,22.2904563 C63.4660213,22.3783437 63.628304,22.4091042 64.1765562,22.4091042 C64.6809483,22.4091042 64.8651611,22.3563718 65.0274438,22.1762028 C65.1283222,22.0619493 65.1634103,21.9476958 65.1634103,21.7235831 L65.1634103,20.4404282 L65.5318359,20.4404282 L65.5318359,22.6771606 L65.1809544,22.6771606 L65.1809544,22.2904563 C65.0098997,22.6376113 64.7862128,22.7167099 64.0537477,22.7167099 C63.4440912,22.7167099 63.167772,22.6551887 62.9704012,22.4530479 C62.8475927,22.334738 62.7774164,22.1278648 62.7774164,21.8773859 L62.7774164,20.4404282 L63.1455046,20.4404282 Z" id="Fill-24" fill="#9CA1AE" mask="url(#mask-2)"></path>
                        <path d="M67.2822283,20.4404282 L67.6331097,20.4404282 L67.6331097,20.7128789 C67.8611827,20.4448225 67.9839912,20.4008789 68.6418939,20.4008789 C69.1550581,20.4008789 69.3132921,20.4272451 69.4931188,20.5414986 C69.5980459,20.6026817 69.6550641,20.6865127 69.7252404,20.8271324 C69.8831371,20.5151324 70.1726143,20.4008789 70.7910429,20.4008789 C71.6375444,20.4008789 71.9931492,20.6381746 71.9931492,21.2226254 L71.9931492,22.6771606 L71.6243863,22.6771606 L71.6243863,21.2973296 C71.6243863,21.038062 71.6027936,20.9589634 71.4928058,20.8710761 C71.3568392,20.7612169 71.1419243,20.7084845 70.7340246,20.7084845 C70.3089182,20.7084845 70.1115474,20.7656113 69.9884015,20.906231 C69.9010185,21.002907 69.852435,21.1391324 69.852435,21.2929352 L69.852435,22.6771606 L69.4840094,22.6771606 L69.4840094,21.2929352 C69.4840094,21.0951887 69.4357632,20.9501746 69.3304988,20.8491042 C69.2296204,20.7568225 68.9796173,20.7084845 68.5585596,20.7084845 C67.8874988,20.7084845 67.6506538,20.8710761 67.6506538,21.3280901 L67.6506538,22.6771606 L67.2822283,22.6771606 L67.2822283,20.4404282 Z" id="Fill-25" fill="#9CA1AE" mask="url(#mask-2)"></path>
                        <polygon id="Fill-26" fill="#9CA1AE" mask="url(#mask-2)" points="73.7782249 22.6771606 74.2067964 22.6771606 74.2067964 19.4692732 73.7782249 19.4692732"></polygon>
                        <path d="M78.3708246,21.3280901 C78.3708246,21.0776113 78.3445085,20.9721465 78.2480161,20.8842592 C78.1032775,20.7612169 77.8488884,20.7040901 77.3269523,20.7040901 C76.4234325,20.7040901 76.2567638,20.8139493 76.2567638,21.3280901 L78.3708246,21.3280901 Z M78.7436362,22.0004282 L78.7436362,22.0355831 C78.7436362,22.2377239 78.691004,22.3783437 78.5769675,22.4885408 C78.4936331,22.5673014 78.3532805,22.6376113 78.212928,22.6731042 C78.1032775,22.694738 77.6734477,22.7167099 77.3269523,22.7167099 C76.541855,22.7167099 76.3971164,22.694738 76.1690435,22.5057803 C75.9453565,22.3256113 75.8707942,22.070738 75.8707942,21.4862873 C75.8707942,21.0468507 75.9278125,20.8359211 76.0857091,20.6777239 C76.300624,20.4755831 76.6164173,20.4008789 77.3006362,20.4008789 C78.0594173,20.4008789 78.3795967,20.4887662 78.5681954,20.7392451 C78.704162,20.9150197 78.7436362,21.1171606 78.7436362,21.5478085 L78.7436362,21.6356958 L76.2523778,21.6356958 L76.2523778,21.7367662 C76.2523778,22.0092169 76.3137821,22.1805972 76.4541347,22.2728789 C76.6164173,22.3871324 76.8050161,22.4091042 77.4585328,22.4091042 C78.0155571,22.4091042 78.1602957,22.3871324 78.2655602,22.2816676 C78.3445085,22.2113577 78.3708246,22.1410479 78.3839827,22.0004282 L78.7436362,22.0004282 Z" id="Fill-27" fill="#9CA1AE" mask="url(#mask-2)"></path>
                        <path d="M80.4106267,20.4404282 L80.7615082,20.4404282 L80.7615082,20.7656113 C80.9062468,20.4975549 81.1387058,20.4008789 81.5027453,20.4008789 L81.8623988,20.4008789 C82.2220523,20.4008789 82.4852134,20.4887662 82.6083593,20.6513577 C82.7308304,20.7963718 82.7527605,20.9150197 82.7527605,21.4555268 L82.4150371,21.4555268 L82.4150371,21.2621746 C82.4150371,20.8139493 82.2574778,20.7084845 81.7092255,20.7084845 L81.423797,20.7084845 C81.0115112,20.7084845 80.7790523,20.8886535 80.7790523,21.2973296 L80.7790523,22.6771606 L80.4106267,22.6771606 L80.4106267,20.4404282 Z" id="Fill-28" fill="#9CA1AE" mask="url(#mask-2)"></path>
                    </g>
                </g>
            </g>
        </g>
    </g>
</svg>