<?xml version="1.0" encoding="UTF-8"?>
<svg width="75px" height="21px" viewBox="0 0 75 21" version="1.1" xmlns="http://www.w3.org/2000/svg" xmlns:xlink="http://www.w3.org/1999/xlink">
    <title>57C798BC-D4D2-420A-89C7-ECD6AFA452EC</title>
    <defs>
        <polygon id="path-1" points="0 19.5652174 74.9547826 19.5652174 74.9547826 0.373913043 0 0.373913043"></polygon>
    </defs>
    <g id="Anasayfa" stroke="none" stroke-width="1" fill="none" fill-rule="evenodd">
        <g transform="translate(-1092.000000, -4105.000000)">
            <rect fill="#FFFFFF" x="0" y="0" width="1440" height="4427"></rect>
            <g id="footer" transform="translate(0.000000, 3646.000000)">
                <g id="markalar" transform="translate(0.000000, 424.000000)">
                    <rect id="Rectangle-4-Copy" stroke="#EBF1FA" fill="#F6F9FD" x="-0.5" y="-0.5" width="1441" height="91"></rect>
                    <g id="letsgo" transform="translate(1092.000000, 35.000000)">
                        <polygon id="Fill-1" fill="#9CA1AE" points="0 1.14847826 0 16.2941304 8.01130435 16.2941304 8.01130435 14.8458696 1.77434783 14.8458696 1.77434783 1.14847826"></polygon>
                        <g id="Group-20" transform="translate(0.000000, 0.060652)">
                            <path d="M12.1633913,10.331 L17.2333913,10.331 C17.2333913,9.7036087 16.9433913,9.30534783 16.3642609,9.13578261 C16.122087,9.0636087 15.5673043,9.02708696 14.6981739,9.02708696 C13.7568696,9.02708696 13.1890435,9.05752174 12.9964348,9.11795652 C12.4412174,9.26273913 12.1633913,9.66708696 12.1633913,10.331 M8.68686957,11.9966522 L8.68686957,11.1096957 C8.68686957,9.5883913 9.02469565,8.49969565 9.70078261,7.84143478 C10.3768696,7.1836087 11.4629565,6.85447826 12.9603478,6.85447826 L15.3864348,6.85447826 C17.1725217,6.85447826 18.4281739,7.07186957 19.1525217,7.50621739 C20.1177391,8.08578261 20.6007826,9.19665217 20.6007826,10.8379565 L20.6007826,12.3953478 L12.1633913,12.3953478 L12.1633913,12.9566522 C12.1633913,13.4996957 12.4046957,13.8618696 12.8877391,14.0427391 C13.1773043,14.1514348 13.6481739,14.2057826 14.299913,14.2057826 L15.3681739,14.2057826 C16.2129565,14.2057826 16.7803478,14.097087 17.0703478,13.8801304 C17.2512174,13.747087 17.3416522,13.5057826 17.3416522,13.1557826 L20.6007826,13.1557826 L20.6007826,13.5540435 C20.6007826,14.7005652 20.0877391,15.4914348 19.0616522,15.9257826 C18.3616522,16.2275217 17.3477391,16.3783913 16.019913,16.3783913 L13.4129565,16.3783913 C11.9642609,16.3783913 10.889913,16.1431739 10.189913,15.6723043 C9.18773913,14.9962174 8.68686957,13.771 8.68686957,11.9966522" id="Fill-2" fill="#9CA1AE"></path>
                            <path d="M23.4070435,13.1556087 L23.4070435,9.49778261 L21.6687826,9.49778261 L21.6687826,6.99952174 L23.4070435,6.99952174 L23.4070435,4.4303913 L26.8835652,4.4303913 L26.8835652,6.99952174 L32.2792174,6.99952174 L32.2792174,9.49778261 L26.8835652,9.49778261 L26.8835652,13.046913 C26.8835652,13.6021304 27.330087,13.8799565 28.2231304,13.8799565 C28.7305217,13.8799565 29.0805217,13.8195217 29.2735652,13.6986522 C29.5270435,13.5421304 29.6535652,13.2343043 29.6535652,12.7751739 L29.6535652,12.1595217 L32.6957391,12.1595217 L32.6957391,13.2825652 C32.6957391,14.3686522 32.2970435,15.1773478 31.5005217,15.7086522 C30.8244348,16.1551739 29.9131304,16.3786522 28.7666087,16.3786522 L27.3905217,16.3786522 C24.7348696,16.3786522 23.4070435,15.3043043 23.4070435,13.1556087" id="Fill-4" fill="#9CA1AE"></path>
                            <path d="M34.2886957,13.3547391 L37.873913,13.3547391 C37.873913,13.7651739 38.1573913,14.0247391 38.7247826,14.1334348 C38.9421739,14.1816957 39.3769565,14.2056087 40.0286957,14.2056087 L41.26,14.2056087 C41.9234783,14.2056087 42.333913,14.1938696 42.4908696,14.1695217 C43.046087,14.0851739 43.323913,13.8677826 43.323913,13.5177826 C43.323913,13.1677826 43.1426087,12.9382174 42.7808696,12.8295217 C42.5995652,12.7816957 42.2795652,12.7573478 41.8213043,12.7573478 L38.5621739,12.7573478 C37.0773913,12.7573478 36.0513043,12.5825652 35.483913,12.2321304 C34.7352174,11.7734348 34.3613043,10.8621304 34.3613043,9.49778261 C34.3613043,8.44778261 34.7713043,7.71778261 35.5926087,7.30734783 C36.196087,7.0056087 37.1978261,6.85473913 38.5982609,6.85473913 L41.0243478,6.85473913 C42.8586957,6.85473913 44.0417391,6.93343478 44.5730435,7.08995652 C45.7682609,7.45213043 46.3773913,8.30952174 46.4017391,9.66082609 L42.9256522,9.66082609 C42.8169565,9.32343478 42.4421739,9.11778261 41.8030435,9.0456087 C41.6943478,9.03343478 41.2056522,9.02734783 40.3365217,9.02734783 L38.923913,9.02734783 C38.2726087,9.09952174 37.9465217,9.32908696 37.9465217,9.71517391 C37.9465217,9.99343478 38.2478261,10.1677826 38.8517391,10.2403913 C38.9721739,10.2525652 39.3643478,10.2586522 40.0286957,10.2586522 L42.4365217,10.2586522 C44.32,10.2586522 45.5873913,10.5603913 46.2391304,11.1638696 C46.6852174,11.5743043 46.9086957,12.2864783 46.9086957,13.3003913 C46.9086957,14.7008261 46.4017391,15.6060435 45.3878261,16.0164783 C44.8086957,16.2577826 43.6678261,16.3786522 41.966087,16.3786522 L38.6708696,16.3786522 C37.246087,16.3786522 36.226087,16.2216957 35.6108696,15.9077826 C34.7291304,15.4612609 34.2886957,14.6103913 34.2886957,13.3547391" id="Fill-6" fill="#9CA1AE"></path>
                            <path d="M58.3514348,12.069087 L58.3514348,10.9464783 C58.3514348,9.95691304 58.137087,9.23865217 57.7083913,8.79169565 C57.2801304,8.3456087 56.5705652,8.12213043 55.5814348,8.12213043 L52.4127391,8.12213043 C50.5775217,8.12213043 49.661,8.77386957 49.661,10.0773478 L49.661,11.7795217 C49.661,12.7816957 49.8536087,13.4934348 50.2401304,13.9160435 C50.6257826,14.3386522 51.3140435,14.5499565 52.3040435,14.5499565 L55.3096957,14.5499565 C57.3375217,14.5499565 58.3514348,13.723 58.3514348,12.069087 L58.3514348,12.069087 Z M59.9088261,6.99952174 L59.9088261,16.2156087 C59.9088261,18.4486522 58.4479565,19.5651739 55.527087,19.5651739 L52.0144783,19.5651739 C51.0123043,19.5651739 50.1914348,19.3599565 49.5518696,18.9495217 C48.7792609,18.4664783 48.3931739,17.7547391 48.3931739,16.813 L48.3931739,16.5051739 L49.8418696,16.5051739 L49.8418696,16.7586522 C49.8418696,17.7847391 50.7344783,18.2977826 52.5214348,18.2977826 L54.0423043,18.2977826 C55.7805652,18.2977826 56.884913,18.189087 57.3557826,17.9716957 C58.0192609,17.6699565 58.3514348,16.9334348 58.3514348,15.763 L58.3514348,14.386913 L58.3153478,14.386913 C58.0979565,14.9782174 57.6696957,15.383 57.0296957,15.5999565 C56.5953478,15.7447391 55.9796957,15.8173478 55.1831739,15.8173478 L51.9783913,15.8173478 C49.394913,15.8173478 48.1036087,14.5860435 48.1036087,12.1234348 L48.1036087,10.5843043 C48.1036087,8.09821739 49.4966522,6.85473913 52.2827391,6.85473913 L55.6075217,6.85473913 C57.1218696,6.85473913 58.0727391,7.45213043 58.4601304,8.64691304 L58.4601304,6.99952174 L59.9088261,6.99952174 Z" id="Fill-8" fill="#9CA1AE"></path>
                            <path d="M73.3976957,12.5399565 L73.3976957,10.693 C73.3976957,9.69126087 73.1194348,8.99734783 72.5646522,8.61082609 C72.1059565,8.28473913 71.3576957,8.12213043 70.3194348,8.12213043 L67.1511739,8.12213043 C66.1246522,8.12213043 65.3768261,8.28473913 64.9059565,8.61082609 C64.3503043,9.00908696 64.072913,9.70386957 64.072913,10.693 L64.072913,12.5399565 C64.072913,13.5299565 64.3503043,14.2238696 64.9059565,14.6221304 C65.3768261,14.9482174 66.1246522,15.1112609 67.1511739,15.1112609 L70.3194348,15.1112609 C71.3576957,15.1112609 72.1059565,14.9482174 72.5646522,14.6221304 C73.1194348,14.2360435 73.3976957,13.5421304 73.3976957,12.5399565 M62.5159565,12.6303913 L62.5159565,10.6025652 C62.5159565,9.14256522 63.0346522,8.11604348 64.072913,7.52430435 C64.8572609,7.07821739 66.0403043,6.85473913 67.6220435,6.85473913 L69.849,6.85473913 C71.4303043,6.85473913 72.612913,7.07821739 73.3976957,7.52430435 C74.4359565,8.11604348 74.9546522,9.14256522 74.9546522,10.6025652 L74.9546522,12.6303913 C74.9546522,14.079087 74.4359565,15.099087 73.3976957,15.6903913 C72.6011739,16.149087 71.4176957,16.3786522 69.849,16.3786522 L67.6220435,16.3786522 C66.0524783,16.3786522 64.8698696,16.149087 64.072913,15.6903913 C63.0346522,15.099087 62.5159565,14.079087 62.5159565,12.6303913" id="Fill-10" fill="#9CA1AE"></path>
                            <mask id="mask-2" fill="white">
                                <use xlink:href="#path-1"></use>
                            </mask>
                            <g id="Clip-13"></g>
                            <polygon id="Fill-12" fill="#9CA1AE" mask="url(#mask-2)" points="31.0656522 4.43043478 32.2908696 4.43043478 32.2908696 1.13608696 31.0656522 1.13608696"></polygon>
                            <path d="M37.8556957,2.3646087 C37.8556957,2.122 37.7917826,1.962 37.6639565,1.88417391 C37.5748261,1.8293913 37.4126522,1.802 37.1783043,1.802 L36.763087,1.802 C36.533087,1.802 36.367,1.82243478 36.2648261,1.86330435 C36.0983043,1.92765217 36.0156957,2.06504348 36.0156957,2.27547826 C36.0156957,2.31678261 36.0174348,2.34634783 36.0217826,2.3646087 L37.8556957,2.3646087 Z M37.8491739,3.31156522 L38.9483043,3.31156522 C38.9400435,3.79243478 38.7613478,4.11243478 38.4117826,4.27286957 C38.1856957,4.37765217 37.810913,4.43026087 37.287,4.43026087 C36.9291739,4.43026087 36.5735217,4.41678261 36.2200435,4.3893913 C35.7043913,4.34808696 35.3487391,4.18547826 35.153087,3.902 C34.9826522,3.65504348 34.8974348,3.24330435 34.8974348,2.66634783 C34.8974348,2.13113043 34.993087,1.7446087 35.1848261,1.50678261 C35.380913,1.26417391 35.7239565,1.13156522 36.2135217,1.10852174 C36.4987391,1.09504348 36.8483043,1.08765217 37.2613478,1.08765217 C37.747,1.08765217 38.1074348,1.14069565 38.3413478,1.24591304 C38.6904783,1.40156522 38.8822174,1.69634783 38.9165652,2.13113043 C38.9248261,2.22286957 38.9356957,2.50634783 38.9483043,2.98243478 L36.0217826,2.98243478 C36.0217826,3.2293913 36.0643913,3.40547826 36.1496087,3.51069565 C36.2391739,3.61156522 36.397,3.66417391 36.6226522,3.66852174 L37.2487391,3.68243478 C37.550913,3.68243478 37.7343913,3.63678261 37.7983043,3.54504348 C37.8235217,3.50852174 37.840913,3.43069565 37.8491739,3.31156522 L37.8491739,3.31156522 Z" id="Fill-14" fill="#9CA1AE" mask="url(#mask-2)"></path>
                            <path d="M43.0886087,1.1566087 L43.0886087,1.94573913 L41.2868696,1.94573913 L41.2868696,2.96834783 C41.2868696,3.16965217 41.3190435,3.31617391 41.3825217,3.40791304 C41.4468696,3.49921739 41.5703478,3.54530435 41.7533913,3.54530435 C41.9151304,3.54530435 42.0346957,3.51530435 42.1112174,3.45573913 C42.1881739,3.39182609 42.2264348,3.27747826 42.2264348,3.11269565 L42.2264348,2.96834783 L43.0886087,2.96834783 C43.0886087,3.54052174 43.009913,3.92008696 42.8525217,4.10791304 C42.6733913,4.32313043 42.3116522,4.43052174 41.766,4.43052174 C41.242087,4.43052174 40.8716522,4.38008696 40.6542609,4.27965217 C40.3177391,4.124 40.1494783,3.80356522 40.1494783,3.31834783 L40.1494783,1.94573913 L39.5812174,1.94573913 L39.5812174,1.1566087 L40.1494783,1.1566087 L40.1494783,0.374 L41.2868696,0.374 L41.2868696,1.1566087 L43.0886087,1.1566087 Z" id="Fill-15" fill="#9CA1AE" mask="url(#mask-2)"></path>
                            <path d="M47.8873478,2.02808696 L46.7243043,2.02808696 C46.703,1.882 46.5073478,1.80852174 46.136913,1.80852174 L45.6573478,1.80852174 C45.4573478,1.80852174 45.3247391,1.81547826 45.2612609,1.82895652 C45.0951739,1.86547826 45.0121304,1.95286957 45.0121304,2.09026087 C45.0121304,2.23634783 45.1356087,2.3093913 45.3825652,2.3093913 C45.9538696,2.3093913 46.3599565,2.312 46.6034348,2.31678261 C47.0886522,2.32591304 47.4125652,2.3646087 47.5743043,2.43330435 C47.8808261,2.56591304 48.0347391,2.84286957 48.0347391,3.26373913 C48.0347391,3.53330435 48.0047391,3.73721739 47.9451739,3.8746087 C47.8682174,4.04373913 47.7234348,4.172 47.5103913,4.25895652 C47.2334348,4.37330435 46.7243043,4.43026087 45.9834348,4.43026087 L45.516913,4.43026087 C44.9886522,4.43026087 44.6221304,4.38678261 44.4182174,4.30026087 C44.0643043,4.14895652 43.8834348,3.84026087 43.8747391,3.37330435 L45.0312609,3.37330435 C45.0351739,3.51982609 45.1077826,3.61373913 45.2486522,3.65504348 C45.3421304,3.68243478 45.4956087,3.69591304 45.7082174,3.69591304 L45.9703913,3.69591304 C46.009087,3.69591304 46.0599565,3.69808696 46.1238696,3.70286957 L46.2325652,3.70286957 C46.4456087,3.70286957 46.5882174,3.69373913 46.6608261,3.67547826 C46.8351739,3.62982609 46.9225652,3.53156522 46.9225652,3.38026087 C46.9225652,3.22026087 46.7925652,3.14026087 46.533,3.14026087 L45.7021304,3.14026087 C45.2634348,3.14026087 44.9482174,3.13113043 44.7564783,3.11286957 C44.1816957,3.05765217 43.8934348,2.73286957 43.8934348,2.13808696 C43.8934348,1.76286957 44.0177826,1.49721739 44.2643043,1.342 C44.439087,1.232 44.7203913,1.15895652 45.1077826,1.12243478 C45.3082174,1.10417391 45.6682174,1.09504348 46.1877826,1.09504348 C47.0356087,1.09504348 47.5447391,1.20678261 47.7151739,1.43113043 C47.813,1.56373913 47.8703913,1.76286957 47.8873478,2.02808696" id="Fill-16" fill="#9CA1AE" mask="url(#mask-2)"></path>
                            <path d="M49.5101304,1.13604348 L51.5866522,1.13604348 L51.5866522,1.54778261 L49.5101304,1.54778261 L49.5101304,3.09908696 C49.5101304,3.4556087 49.5679565,3.69386957 49.6827391,3.813 C49.7979565,3.92691304 50.0240435,3.98430435 50.3601304,3.98430435 C50.6623043,3.98430435 50.8736087,3.94995652 50.9927391,3.88126087 C51.1675217,3.78517391 51.254913,3.593 51.254913,3.30473913 L51.254913,3.11952174 C51.2505652,3.04169565 51.2483913,2.98256522 51.2483913,2.94126087 L51.6636087,2.94126087 C51.6636087,3.53604348 51.6040435,3.91604348 51.484913,4.0803913 C51.3314348,4.29995652 50.9736087,4.40995652 50.4114348,4.40995652 C49.947087,4.40995652 49.6253478,4.35473913 49.4466522,4.24517391 C49.191,4.08952174 49.0631739,3.783 49.0631739,3.3256087 L49.0631739,1.54778261 L48.334913,1.54778261 L48.334913,1.13604348 L49.0631739,1.13604348 L49.0631739,0.408652174 L49.5101304,0.408652174 L49.5101304,1.13604348 Z" id="Fill-17" fill="#9CA1AE" mask="url(#mask-2)"></path>
                            <path d="M55.932087,4.36186957 L55.4846957,4.36186957 L55.4846957,3.73708696 C55.3868696,4.01186957 55.1973043,4.20143478 54.916,4.30708696 C54.7242609,4.37534783 54.4555652,4.40969565 54.1112174,4.40969565 C53.539913,4.40969565 53.1312174,4.34795652 52.8842609,4.22447826 C52.5138261,4.03665217 52.3281739,3.67317391 52.3281739,3.13317391 L52.3281739,1.13621739 L52.7751304,1.13621739 L52.7751304,2.89969565 C52.7751304,3.371 52.8794783,3.67795652 53.0886087,3.81969565 C53.246,3.92926087 53.5616522,3.98447826 54.0342609,3.98447826 C54.5242609,3.98447826 54.8651304,3.93404348 55.0564348,3.83317391 C55.342087,3.67795652 55.4846957,3.36665217 55.4846957,2.89969565 L55.4846957,1.13621739 L55.932087,1.13621739 L55.932087,4.36186957 Z" id="Fill-18" fill="#9CA1AE" mask="url(#mask-2)"></path>
                            <path d="M56.9476957,1.13604348 L57.395087,1.13604348 L57.395087,1.7056087 C57.4720435,1.45386957 57.6337826,1.2803913 57.8807391,1.18386957 C58.0468261,1.11995652 58.2833478,1.08778261 58.5898696,1.08778261 C59.1611739,1.08778261 59.5424783,1.15213043 59.7337826,1.2803913 C59.9981304,1.45865217 60.1298696,1.83343478 60.1298696,2.4056087 L60.1298696,2.48126087 C60.1259565,2.51778261 60.1237826,2.543 60.1237826,2.55691304 L59.682913,2.55691304 C59.682913,2.15386957 59.622913,1.87952174 59.5037826,1.733 C59.3842174,1.58691304 59.135087,1.51343478 58.7563913,1.51343478 L58.602913,1.51343478 C58.1724783,1.51343478 57.8746522,1.573 57.7081304,1.69213043 C57.4998696,1.83821739 57.395087,2.12647826 57.395087,2.55691304 L57.395087,4.36169565 L56.9476957,4.36169565 L56.9476957,1.13604348 Z" id="Fill-19" fill="#9CA1AE" mask="url(#mask-2)"></path>
                        </g>
                    </g>
                </g>
            </g>
        </g>
    </g>
</svg>