<svg width="96" height="19" viewBox="0 0 96 19" fill="none" xmlns="http://www.w3.org/2000/svg">
<g clip-path="url(#clip0_608_565)">
<path d="M59.8149 4.80975C58.4899 4.7781 57.1957 5.21181 56.1574 6.03546C55.1201 5.21161 53.8266 4.77785 52.5023 4.80975C49.4724 4.80975 47.2734 6.77088 47.2734 9.46744V16.1525C47.2734 16.7334 47.2906 16.9859 47.4843 17.3414C47.6366 17.5574 47.8386 17.7336 48.0732 17.8553C48.3078 17.9769 48.5682 18.0404 48.8325 18.0404C49.0968 18.0404 49.3573 17.9769 49.5919 17.8553C49.8265 17.7336 50.0285 17.5574 50.1808 17.3414C50.372 16.9908 50.3892 16.7384 50.3892 16.1574V9.85477C50.3892 8.53836 51.181 7.75145 52.5072 7.75145C53.6692 7.75145 54.4291 8.3545 54.5909 9.41106C54.5909 9.42577 54.5909 9.44048 54.5909 9.45519V16.1525C54.5909 16.7334 54.6105 16.9859 54.8017 17.3414C54.9457 17.5624 55.1444 17.7424 55.3785 17.864C55.6126 17.9856 55.8742 18.0445 56.1378 18.0352H56.1745C56.4406 18.0459 56.7049 17.9871 56.9413 17.8646C57.1778 17.7421 57.3782 17.5601 57.5228 17.3365C57.7116 16.9859 57.7312 16.7334 57.7312 16.1525V9.45519C57.7312 9.45519 57.7312 9.43067 57.7312 9.41106C57.893 8.3545 58.6529 7.75145 59.8149 7.75145C61.1411 7.75145 61.9329 8.53836 61.9329 9.85477V16.1525C61.9329 16.7334 61.9501 16.9859 62.1437 17.3414C62.2961 17.5574 62.498 17.7336 62.7327 17.8553C62.9673 17.9769 63.2277 18.0404 63.492 18.0404C63.7563 18.0404 64.0167 17.9769 64.2514 17.8553C64.486 17.7336 64.688 17.5574 64.8403 17.3414C65.0315 16.9908 65.0487 16.7384 65.0487 16.1574V9.45519C65.0462 6.76353 62.8473 4.80975 59.8149 4.80975Z" fill="#9CA1AE"/>
<path d="M6.70441 4.62573C4.90868 4.62573 3.1865 5.33908 1.91672 6.60886C0.646946 7.87863 -0.0664062 9.60082 -0.0664062 11.3966C-0.0664062 13.1923 0.646946 14.9145 1.91672 16.1842C3.1865 17.454 4.90868 18.1674 6.70441 18.1674C8.50014 18.1674 10.2223 17.454 11.4921 16.1842C12.7619 14.9145 13.4752 13.1923 13.4752 11.3966C13.4752 9.60082 12.7619 7.87863 11.4921 6.60886C10.2223 5.33908 8.50014 4.62573 6.70441 4.62573ZM6.70441 14.9438C6.00122 14.9515 5.31159 14.7501 4.72312 14.3651C4.13465 13.9801 3.6739 13.4288 3.39939 12.7814C3.12489 12.134 3.04902 11.4195 3.18143 10.7289C3.31384 10.0382 3.64855 9.40251 4.14303 8.9025C4.63752 8.40248 5.26947 8.06073 5.95861 7.92065C6.64775 7.78057 7.36298 7.84849 8.01343 8.11578C8.66389 8.38306 9.22022 8.83766 9.61175 9.42181C10.0033 10.006 10.2123 10.6933 10.2124 11.3966C10.2156 11.8604 10.1274 12.3204 9.9529 12.7503C9.77836 13.1801 9.52086 13.5713 9.19511 13.9016C8.86936 14.2319 8.48174 14.4948 8.05439 14.6753C7.62703 14.8558 7.16831 14.9503 6.70441 14.9536V14.9438Z" fill="#9CA1AE"/>
<path d="M91.8869 11.409L95.5419 7.75395C95.6872 7.60931 95.8025 7.4374 95.8812 7.24809C95.9598 7.05879 96.0003 6.85581 96.0003 6.65081C96.0003 6.44581 95.9598 6.24283 95.8812 6.05352C95.8025 5.86421 95.6872 5.69231 95.5419 5.54767C95.3971 5.40269 95.2252 5.28767 95.0359 5.2092C94.8466 5.13072 94.6437 5.09033 94.4388 5.09033C94.2339 5.09033 94.031 5.13072 93.8417 5.2092C93.6524 5.28767 93.4805 5.40269 93.3357 5.54767L89.6806 9.20519L86.0255 5.54767C85.733 5.2551 85.3361 5.09073 84.9224 5.09073C84.5086 5.09073 84.1118 5.2551 83.8192 5.54767C83.5267 5.84024 83.3623 6.23705 83.3623 6.65081C83.3623 7.06456 83.5267 7.46138 83.8192 7.75395L87.4768 11.409L83.8192 15.0665C83.5267 15.3591 83.3623 15.7559 83.3623 16.1697C83.3623 16.5834 83.5267 16.9802 83.8192 17.2728C84.1118 17.5654 84.5086 17.7297 84.9224 17.7297C85.3361 17.7297 85.733 17.5654 86.0255 17.2728L89.6806 13.6177L93.3381 17.2728C93.4829 17.4178 93.6549 17.5328 93.8442 17.6113C94.0335 17.6898 94.2363 17.7301 94.4413 17.7301C94.6462 17.7301 94.8491 17.6898 95.0384 17.6113C95.2276 17.5328 95.3996 17.4178 95.5444 17.2728C95.69 17.1283 95.8055 16.9565 95.8843 16.7671C95.9632 16.5778 96.0038 16.3748 96.0038 16.1697C96.0038 15.9646 95.9632 15.7615 95.8843 15.5722C95.8055 15.3829 95.69 15.211 95.5444 15.0665L91.8869 11.409Z" fill="#9CA1AE"/>
<path d="M27.1912 -6.23568e-05C26.8038 -0.00611054 26.4292 0.13897 26.1469 0.404422C25.8826 0.64431 25.7094 0.968228 25.6566 1.32125V1.44382V11.4039C25.6567 11.7196 25.6138 12.0338 25.5292 12.3379V12.3208C25.4791 12.4882 25.4177 12.652 25.3453 12.811C25.2053 13.1005 25.0264 13.3694 24.8134 13.6102C24.4758 13.9828 24.0707 14.2881 23.6195 14.5099C23.4669 14.5831 23.3097 14.6461 23.1488 14.6986C22.7094 14.8409 22.2464 14.8959 21.7859 14.8604C21.3332 14.8257 20.8917 14.7025 20.4866 14.4976C20.0768 14.2864 19.7094 14.0014 19.4031 13.6568C19.2806 13.5192 19.1699 13.3716 19.0721 13.2155L19.0403 13.1665L19.0059 13.1077L18.9765 13.0537C18.9201 12.9483 18.876 12.8552 18.8368 12.7645C18.6489 12.3339 18.5529 11.8688 18.5549 11.399C18.5542 11.0452 18.6063 10.6932 18.7093 10.3547L18.7387 10.264C18.7682 10.1782 18.8 10.0949 18.8368 10.0189C19.0175 9.59683 19.2762 9.21261 19.5992 8.88633C19.6703 8.81524 19.7463 8.74905 19.8247 8.68286L19.886 8.63383C19.9497 8.58235 20.0184 8.53332 20.087 8.48675C20.1122 8.46818 20.1384 8.451 20.1655 8.43527C20.342 8.31831 20.5291 8.21818 20.7244 8.13619L20.8053 8.10433L20.9671 8.04549L21.0847 8.00872C21.2664 7.95657 21.4516 7.91725 21.6388 7.89105L22.1805 7.81996C22.3295 7.81665 22.4786 7.8232 22.6267 7.83957C22.7394 7.84562 22.8523 7.84562 22.965 7.83957C23.162 7.83598 23.356 7.78999 23.5337 7.70475C23.716 7.61921 23.8797 7.49858 24.0153 7.34976C24.1509 7.20093 24.2559 7.02683 24.3242 6.8374C24.3925 6.64798 24.4228 6.44694 24.4134 6.2458C24.4039 6.04466 24.3549 5.84735 24.2691 5.66517C24.1302 5.36814 23.8929 5.12825 23.5974 4.98612C23.3996 4.89269 23.1875 4.83303 22.9699 4.80962C22.416 4.73347 21.8543 4.73347 21.3005 4.80962L21.0774 4.84394C20.8886 4.87581 20.695 4.91993 20.4645 4.98122C19.8616 5.13407 19.2837 5.37265 18.7485 5.68968C18.5357 5.81898 18.3296 5.95888 18.1308 6.10887L18.0646 6.1579L17.8832 6.30253L17.8121 6.36382C17.7459 6.41775 17.6822 6.47658 17.6184 6.53297L17.5915 6.55993C17.5449 6.60161 17.4983 6.64818 17.4542 6.69231C17.4533 6.69635 17.4533 6.70053 17.4542 6.70457C17.2424 6.91145 17.045 7.1326 16.8634 7.36645C16.5391 7.78915 16.2667 8.24921 16.052 8.73679L16.0226 8.80053L15.9883 8.88633C15.9883 8.91329 15.9662 8.94271 15.9539 8.96968C15.9221 9.04812 15.8926 9.12902 15.8632 9.21482C15.8461 9.2663 15.8289 9.32023 15.8093 9.37416L15.7799 9.46977L15.7578 9.53841C15.748 9.56782 15.7382 9.59969 15.7284 9.63401C15.6243 10.0028 15.5537 10.3802 15.5176 10.7617C15.5176 10.7617 15.5176 10.7862 15.5176 10.7984C15.5176 10.8107 15.5176 10.8793 15.5176 10.921V10.9995V11.0313C15.5176 11.1147 15.5176 11.198 15.5176 11.2765C15.5176 11.3157 15.5176 11.3525 15.5176 11.3917V11.5216C15.5176 11.578 15.5176 11.6319 15.5176 11.6858C15.5632 13.1973 16.1355 14.6454 17.1355 15.7797L17.2385 15.8925C17.873 16.5785 18.6481 17.1195 19.5109 17.4785L19.5404 17.4933L19.7242 17.5668L19.761 17.5815C20.0508 17.6924 20.3482 17.7825 20.6508 17.8512L20.7121 17.8634L20.9181 17.9051L21.0676 17.9321L21.2 17.9492L21.4132 17.9762H21.5064L21.7515 17.9933H21.8667H22.357C22.6982 17.9882 23.0385 17.9555 23.3744 17.8953L23.4455 17.8781C23.7064 17.8258 23.9635 17.7562 24.2152 17.6698C24.3353 17.6256 24.4603 17.5766 24.5658 17.53C24.9893 17.3668 25.3931 17.1562 25.7694 16.9025L25.8356 16.851C26.0551 16.7033 26.2632 16.5394 26.4583 16.3607L26.5392 16.2823C27.8776 15.1301 28.7454 13.7303 28.7454 11.0877V1.52717C28.7468 1.32075 28.7053 1.1163 28.6234 0.926806C28.5415 0.737314 28.4211 0.566929 28.2698 0.426484C27.9797 0.149115 27.5926 -0.00394277 27.1912 -6.23568e-05Z" fill="#9CA1AE"/>
<path d="M42.2772 6.48143L42.1963 6.40299C42.0026 6.22367 41.7953 6.05975 41.5761 5.91271L41.5099 5.86123C41.1335 5.60746 40.7298 5.39694 40.3062 5.23366C40.1902 5.18463 40.0725 5.13806 39.9532 5.09393C39.7025 5.00725 39.4461 4.93764 39.1859 4.88556L39.1124 4.8684C38.7714 4.80045 38.4254 4.76109 38.0779 4.75073H37.7911H37.5974H37.4822L37.2371 4.76789H37.1415L36.9306 4.79486L36.7958 4.81202L36.6487 4.83898L36.4404 4.88066L36.3815 4.89291C36.0789 4.96156 35.7815 5.05167 35.4917 5.16257L35.4549 5.17728C35.3936 5.20179 35.3323 5.22386 35.271 5.25082H35.2416C34.3805 5.62009 33.6088 6.1702 32.9789 6.86386L32.876 6.97662C31.8548 8.09977 31.2612 9.54638 31.1992 11.0631V11.2249C31.1992 11.2691 31.1992 11.3107 31.1992 11.3549C31.1992 11.399 31.1992 11.4309 31.1992 11.4701C31.1992 11.5534 31.1992 11.6368 31.1992 11.7152C31.2004 11.725 31.2004 11.7349 31.1992 11.7446V11.8231V11.9456C31.2002 11.9571 31.2002 11.9686 31.1992 11.98C31.2339 12.3624 31.3045 12.7408 31.41 13.1101L31.4395 13.2057L31.4591 13.2743C31.4591 13.3062 31.4811 13.3381 31.4909 13.3699C31.5007 13.4018 31.5277 13.4778 31.5449 13.5293C31.5718 13.6102 31.6037 13.6886 31.6356 13.7744C31.6356 13.8014 31.6576 13.8283 31.6699 13.8578C31.6821 13.8872 31.692 13.9141 31.7042 13.9436C31.7165 13.973 31.7238 13.9852 31.7336 14.0048C32.0647 14.767 32.54 15.4579 33.1334 16.0395H33.1481L33.2829 16.1719L33.3123 16.1989L33.506 16.368L33.5771 16.4293L33.7585 16.5739L33.8247 16.623C34.0227 16.7733 34.2289 16.9124 34.4424 17.0397C34.977 17.3585 35.555 17.598 36.1584 17.7506C36.3889 17.8119 36.5825 17.856 36.7688 17.8879L36.9944 17.9222C37.5474 17.9981 38.1083 17.9981 38.6613 17.9222C38.8788 17.8981 39.0908 17.8385 39.2889 17.7457C39.5845 17.6029 39.8224 17.3633 39.963 17.0667C40.0516 16.8855 40.1027 16.6884 40.1132 16.487C40.1237 16.2857 40.0935 16.0843 40.0243 15.8949C39.9581 15.706 39.8551 15.532 39.7213 15.3831C39.5875 15.2341 39.4255 15.1132 39.2448 15.0271C39.0631 14.9375 38.8639 14.889 38.6613 14.8849C38.5495 14.8789 38.4374 14.8789 38.3255 14.8849C38.1773 14.9001 38.0283 14.9066 37.8793 14.9045L37.3376 14.831C37.1502 14.806 36.9649 14.7666 36.7836 14.7133C36.7429 14.7033 36.7028 14.691 36.6634 14.6765L36.5016 14.6201L36.4232 14.5883C36.2279 14.5048 36.0401 14.4047 35.8618 14.2892L35.7834 14.2377C35.7147 14.192 35.6485 14.1429 35.5848 14.0906L35.5235 14.0416C35.4449 13.9769 35.3696 13.9081 35.298 13.8357C34.9896 13.5204 34.7413 13.1516 34.565 12.7473C34.5307 12.6672 34.4988 12.5855 34.4694 12.5021C34.4694 12.4727 34.4474 12.4408 34.44 12.4114C34.3358 12.0732 34.2837 11.721 34.2856 11.3671C34.2832 10.8959 34.3784 10.4294 34.565 9.99677C34.6042 9.90607 34.6508 9.81046 34.7072 9.7075L34.7366 9.65357L34.7709 9.59474L34.8028 9.54571C34.9006 9.38962 35.0113 9.24201 35.1337 9.10445C35.4401 8.75988 35.8074 8.47482 36.2173 8.26362C36.6219 8.05737 37.0636 7.93402 37.5165 7.90081C37.9763 7.86427 38.4387 7.91926 38.8771 8.0626C39.0386 8.11552 39.1966 8.17856 39.3502 8.25136C39.801 8.47257 40.2054 8.77794 40.5416 9.15103C40.7561 9.39116 40.936 9.66016 41.076 9.95019C41.1477 10.1093 41.2083 10.2731 41.2574 10.4405V10.4233C41.3421 10.7274 41.385 11.0416 41.3849 11.3573V16.4317V16.5543C41.435 16.9057 41.6026 17.2297 41.8604 17.4736C42.0023 17.6112 42.17 17.7193 42.3539 17.7916C42.5377 17.864 42.7341 17.8992 42.9317 17.8952C43.3332 17.896 43.7192 17.7404 44.0079 17.4613C44.1592 17.3209 44.2796 17.1505 44.3614 16.961C44.4433 16.7715 44.4849 16.5671 44.4835 16.3607V11.676C44.4835 9.03336 43.6157 7.6336 42.2772 6.48143Z" fill="#9CA1AE"/>
<path d="M78.7147 6.48143L78.6338 6.40299C78.4392 6.22483 78.2319 6.06098 78.0136 5.91271L77.945 5.86123C77.5689 5.60695 77.1651 5.3964 76.7413 5.23366C76.6286 5.18463 76.5109 5.13806 76.3908 5.09393C76.1391 5.00754 75.8819 4.93793 75.621 4.88556L75.55 4.8684C75.209 4.80059 74.8629 4.76123 74.5155 4.75073H74.2286H74.0325H73.9173L73.6844 4.76789H73.5888L73.3755 4.79486L73.2432 4.81202L73.0936 4.83898L72.8877 4.88066L72.8264 4.89291C72.524 4.96225 72.2266 5.05235 71.9366 5.16257L71.9022 5.17728C71.8409 5.20179 71.7772 5.22386 71.7159 5.25082H71.689C70.8242 5.61991 70.0485 6.16992 69.414 6.86386L69.3111 6.97662C68.2922 8.10102 67.6997 9.54706 67.6368 11.0631C67.6368 11.1171 67.6368 11.171 67.6368 11.2249V11.3549C67.6368 11.3941 67.6368 11.4309 67.6368 11.4701C67.6368 11.5534 67.6368 11.6368 67.6368 11.7152V11.7667V11.8451C67.6368 11.8868 67.6368 11.926 67.6368 11.9677C67.6354 11.9791 67.6354 11.9906 67.6368 12.002C67.6719 12.3843 67.7416 12.7625 67.8451 13.1321L67.8746 13.2277L67.8966 13.2964C67.8966 13.3282 67.9162 13.3601 67.9285 13.392C67.9407 13.4239 67.9628 13.4998 67.9824 13.5513C68.0118 13.6322 68.0412 13.7107 68.0731 13.7965C68.0854 13.8234 68.0952 13.8504 68.1074 13.8798C68.1197 13.9092 68.1295 13.9362 68.1418 13.9656L68.1712 14.0294C68.3863 14.5172 68.6595 14.9774 68.985 15.3997C69.1658 15.6335 69.3624 15.8547 69.5734 16.0616H69.5856L69.7229 16.194L69.7523 16.2209L69.9436 16.3901L70.0146 16.4514L70.1985 16.596L70.2622 16.645C70.4614 16.7948 70.6685 16.9339 70.8824 17.0618C71.4167 17.3813 71.9948 17.6208 72.5984 17.7727C72.8289 17.834 73.025 17.8781 73.2113 17.91L73.4344 17.9443C73.9882 18.0204 74.5499 18.0204 75.1038 17.9443C75.3211 17.9195 75.533 17.86 75.7314 17.7678C76.0269 17.6256 76.2641 17.3858 76.403 17.0887C76.5774 16.7229 76.5997 16.3029 76.4651 15.9206C76.3305 15.5383 76.0499 15.225 75.6848 15.0491C75.5039 14.9596 75.3055 14.9111 75.1038 14.907C74.9911 14.9009 74.8782 14.9009 74.7655 14.907C74.6173 14.9221 74.4683 14.9287 74.3193 14.9266L73.7776 14.853C73.5909 14.8283 73.4065 14.7889 73.226 14.7354C73.1852 14.7257 73.1451 14.7134 73.1059 14.6986L72.9441 14.6422L72.8632 14.6103C72.6684 14.5274 72.4814 14.4273 72.3043 14.3113L72.2258 14.2598C72.1572 14.2132 72.091 14.1642 72.0248 14.1127L71.9635 14.0637C71.8849 13.9989 71.8096 13.9302 71.738 13.8578C71.429 13.5356 71.1822 13.1591 71.0099 12.7473C70.9732 12.6664 70.9413 12.583 70.9119 12.5021L70.8824 12.4114C70.7802 12.0728 70.729 11.7208 70.7305 11.3671C70.7276 10.8975 70.8228 10.4324 71.0099 10.0017C71.0491 9.91097 71.0957 9.81536 71.1521 9.7124L71.1791 9.65847L71.2158 9.59964L71.2453 9.55061C71.3431 9.39391 71.4546 9.24624 71.5786 9.10936C71.8836 8.76431 72.2502 8.47916 72.6597 8.26852C73.0645 8.06282 73.5062 7.9395 73.959 7.90571C74.4195 7.86897 74.8828 7.92397 75.322 8.0675C75.4828 8.12001 75.6401 8.18306 75.7926 8.25626C76.2442 8.47741 76.6494 8.78277 76.9865 9.15593C77.1994 9.39733 77.3791 9.66609 77.5209 9.9551C77.5915 10.1146 77.6521 10.2783 77.7023 10.4454V10.4282C77.7882 10.7321 77.8311 11.0465 77.8298 11.3622V16.4366V16.5592C77.881 16.9108 78.0494 17.2347 78.3078 17.4785C78.5925 17.7524 78.9742 17.9023 79.3693 17.8952C79.7707 17.8957 80.1566 17.7401 80.4454 17.4613C80.5967 17.3209 80.7171 17.1505 80.799 16.961C80.8809 16.7715 80.9224 16.5671 80.921 16.3607V11.676C80.921 9.03336 80.0532 7.6336 78.7147 6.48143Z" fill="#9CA1AE"/>
</g>
<defs>
<clipPath id="clip0_608_565">
<rect width="96" height="18.1675" fill="white"/>
</clipPath>
</defs>
</svg>
