<?xml version="1.0" encoding="UTF-8"?>
<svg width="78px" height="26px" viewBox="0 0 78 26" version="1.1" xmlns="http://www.w3.org/2000/svg" xmlns:xlink="http://www.w3.org/1999/xlink">
    <title>589578C3-4594-412B-BC26-34F2DF2E0250</title>
    <g id="Anasayfa" stroke="none" stroke-width="1" fill="none" fill-rule="evenodd">
        <g transform="translate(-1197.000000, -4100.000000)">
            <rect fill="#FFFFFF" x="0" y="0" width="1440" height="4427"></rect>
            <g id="footer" transform="translate(0.000000, 3646.000000)">
                <g id="markalar" transform="translate(0.000000, 424.000000)">
                    <rect id="Rectangle-4-Copy" stroke="#EBF1FA" fill="#F6F9FD" x="-0.5" y="-0.5" width="1441" height="91"></rect>
                    <g id="otelpuan-copy" transform="translate(1197.000000, 30.000000)" fill="#9CA1AE">
                        <path d="M15.1834337,6.37996238 C20.3661861,6.37996238 24.5673743,10.5814079 24.5673743,15.763903 C24.5673743,20.9466554 20.3661861,25.1478436 15.1834337,25.1478436 C10.0004238,25.1478436 5.79923564,20.9466554 5.79923564,15.763903 C5.79923564,10.5814079 10.0004238,6.37996238 15.1834337,6.37996238 Z M15.1464416,9.61881584 C11.6915307,9.61881584 8.89048119,12.4196079 8.89048119,15.8747762 C8.89048119,19.3299446 11.6915307,22.1307366 15.1464416,22.1307366 C18.6018673,22.1307366 21.4026594,19.3299446 21.4026594,15.8747762 C21.4026594,12.4196079 18.6018673,9.61881584 15.1464416,9.61881584 Z" id="Combined-Shape"></path>
                        <path d="M10.5472733,16.2430752 C10.5472733,16.2430752 10.9730554,20.6473723 15.0923822,20.8020851 C15.0923822,20.8020851 19.0304812,21.1866792 19.7427782,16.2407584 L17.9006396,16.3609762 C17.9006396,16.3609762 17.358501,19.3375901 15.1845406,19.324204 C15.1845406,19.324204 13.2819069,19.4289762 12.4607188,16.3872337 C12.446303,16.3275109 12.4743624,16.4495307 12.4607188,16.3872337 L10.5472733,16.2430752" id="Fill-5"></path>
                        <path d="M5.41057426,0 C8.39851485,0 10.8208911,2.42237624 10.8208911,5.41057426 C10.8208911,8.39851485 8.39851485,10.8208911 5.41057426,10.8208911 C2.42237624,10.8208911 0,8.39851485 0,5.41057426 C0,2.42237624 2.42237624,0 5.41057426,0 Z M5.43943168,1.32875446 C3.17768911,1.32875446 1.34430297,3.16214059 1.34430297,5.42388317 C1.34430297,7.68562574 3.17768911,9.51901188 5.43943168,9.51901188 C7.70117426,9.51901188 9.5345604,7.68562574 9.5345604,5.42388317 C9.5345604,3.16214059 7.70117426,1.32875446 5.43943168,1.32875446 Z" id="Combined-Shape"></path>
                        <path d="M2.73751683,7.6519802 C2.73751683,7.6519802 2.98284356,5.11273267 5.35785347,5.02340594 C5.35785347,5.02340594 7.62860594,4.80176238 8.0392,7.65326733 L6.97706139,7.5840198 C6.97706139,7.5840198 6.66454653,5.86776238 5.41114059,5.87548515 C5.41114059,5.87548515 4.3142495,5.81524752 3.84084356,7.56883168 C3.83234851,7.60306931 3.84856634,7.53279208 3.84084356,7.56883168 L2.73751683,7.6519802" id="Fill-11"></path>
                        <path d="M29.1735703,22.2799921 L27.9021446,22.2799921 C27.0186594,22.2799921 26.332105,21.999398 25.8427386,21.4382099 C25.4128376,20.9488436 25.1978871,20.3400317 25.1978871,19.6117743 L25.1978871,14.9917545 L24.2129762,14.9917545 L24.2129762,13.2188634 L25.1978871,13.2188634 L25.1978871,10.4610614 L27.5260455,10.4610614 L27.5260455,13.2188634 L29.1735703,13.2188634 L29.1735703,14.9917545 L27.5260455,14.9917545 L27.5260455,19.4686455 C27.5260455,20.0298337 27.7945406,20.3101703 28.3317881,20.3101703 L29.1735703,20.3101703 L29.1735703,22.2799921" id="Fill-18"></path>
                        <path d="M37.7195129,18.3404257 L31.8813545,18.3404257 C31.8813545,18.9492376 32.0605228,19.4478713 32.418602,19.8358119 C32.7769386,20.223495 33.278404,20.4175941 33.922998,20.4175941 C34.7467604,20.4175941 35.4510772,20.1254158 36.0362059,19.5400297 L37.4510178,20.9193168 C36.9613941,21.4086832 36.4480871,21.7757723 35.9108396,22.0205842 C35.3735921,22.2651386 34.7050574,22.3876733 33.9049782,22.3876733 C31.0277307,22.3876733 29.5892356,20.7936931 29.5892356,17.6059901 C29.5892356,16.1376337 29.9653347,14.9617129 30.7172752,14.0784851 C31.4336911,13.2547228 32.4126812,12.843099 33.6542455,12.843099 C34.9200079,12.843099 35.9226812,13.2665644 36.6630376,14.1142673 C37.3673545,14.9259307 37.7195129,15.9885842 37.7195129,17.3019703 L37.7195129,18.3404257 Z M35.4271366,16.7469604 C35.4271366,16.3886238 35.3555723,16.0542277 35.2124436,15.7437723 C34.9259287,15.0991782 34.4064436,14.7766238 33.6542455,14.7766238 C32.902305,14.7766238 32.3828198,15.0991782 32.096305,15.7437723 C31.9529188,16.0660693 31.8813545,16.4007228 31.8813545,16.7469604 L35.4271366,16.7469604 L35.4271366,16.7469604 Z" id="Fill-19"></path>
                        <path d="M42.5894931,22.2799921 L41.2642653,22.2799921 C40.3689386,22.2799921 39.6764634,21.999398 39.1868396,21.4382099 C38.757196,20.9488436 38.5422455,20.3400317 38.5422455,19.6117743 L38.5422455,9.52995248 L40.870404,9.52995248 L40.870404,19.4686455 C40.870404,20.0298337 41.1448198,20.3101703 41.6941663,20.3101703 L42.5894931,20.3101703 L42.5894931,22.2799921" id="Fill-20"></path>
                        <path d="M51.1348178,17.8112614 C51.1348178,18.7899941 51.0931149,19.5064099 51.0094515,19.9605089 C50.8900059,20.7242911 50.6153327,21.3212614 50.1854317,21.750905 C49.624501,22.3118356 48.8661248,22.5924297 47.9113327,22.5924297 C46.9802238,22.5924297 46.2277683,22.2822317 45.6547386,21.6613208 L45.6547386,25.9232614 L43.3268376,25.9232614 L43.3268376,13.155202 L45.5831743,13.155202 L45.5831743,14.0327663 C46.1801446,13.3760733 46.9562832,13.0478554 47.9113327,13.0478554 C48.8661248,13.0478554 49.624501,13.3284495 50.1854317,13.889895 C50.5916495,14.295598 50.8660653,14.8923109 51.0094515,15.6802911 C51.0449762,15.9073406 51.075095,16.1995188 51.0990356,16.5578554 C51.1229762,16.9159347 51.1348178,17.3339941 51.1348178,17.8112614 M48.8066594,17.8112614 C48.8066594,16.9638158 48.7410158,16.3727663 48.6097287,16.0383703 C48.3708376,15.4414 47.9113327,15.1430436 47.230699,15.1430436 C46.5621644,15.1430436 46.1026594,15.4414 45.8519267,16.0383703 C45.7206396,16.4085485 45.6547386,16.999598 45.6547386,17.8112614 C45.6547386,18.6589644 45.7206396,19.2497564 45.8519267,19.5841525 C46.0905604,20.1929644 46.5503228,20.4977564 47.230699,20.4977564 C47.8992337,20.4977564 48.358996,20.1929644 48.6097287,19.5841525 C48.7410158,19.2139743 48.8066594,18.6231822 48.8066594,17.8112614" id="Fill-21"></path>
                        <path d="M59.7638574,22.4851347 L57.489501,22.4851347 L57.489501,21.6255901 C56.8809465,22.2701842 56.1045505,22.5924812 55.1613426,22.5924812 C54.2423327,22.5924812 53.507897,22.3180653 52.9588079,21.7689762 C52.3260554,21.1362238 52.0094218,20.2527386 52.0094218,19.1185208 L52.0094218,13.1552535 L54.3375802,13.1552535 L54.3375802,18.7962238 C54.3375802,19.3571545 54.5046495,19.7986396 54.8390455,20.1214515 C55.1139762,20.3721842 55.4599564,20.4975505 55.8777584,20.4975505 C56.2955604,20.4975505 56.6479762,20.3721842 56.9344911,20.1214515 C57.1015604,19.9780653 57.2271842,19.7986396 57.3105901,19.5839465 C57.393996,19.3692535 57.435699,19.1066792 57.435699,18.7962238 L57.435699,13.1552535 L59.7638574,13.1552535 L59.7638574,22.4851347" id="Fill-22"></path>
                        <path d="M68.1772,22.4851347 L65.9028436,22.4851347 L65.9028436,21.6793921 C65.3058733,22.276105 64.5418337,22.5747188 63.6104673,22.5747188 C62.5720119,22.5747188 61.7868634,22.3031347 61.2555366,21.7599663 C60.7244673,21.216798 60.458804,20.5153129 60.458804,19.6557683 C60.458804,18.8677881 60.7301307,18.2203624 61.2735564,17.7127188 C61.8167248,17.2053327 62.6075366,16.9517683 63.6462495,16.9517683 L65.849299,16.9517683 L65.849299,16.4860851 C65.849299,15.507095 65.2700911,15.0177287 64.1119327,15.0177287 C63.3599921,15.0177287 62.7630218,15.2743822 62.3212792,15.7874317 L60.834903,14.3373525 C61.2642891,13.8477287 61.7302297,13.510501 62.2314376,13.3254119 C62.7331604,13.1403228 63.3893386,13.0479069 64.2015168,13.0479069 C66.8519723,13.0479069 68.1772,14.1458277 68.1772,16.3429564 L68.1772,22.4851347 Z M65.849299,19.0469564 L65.849299,18.5454911 L64.0045861,18.5454911 C63.1326851,18.5454911 62.6973782,18.8973921 62.6973782,19.6019663 C62.6973782,20.3183822 63.1450416,20.6764614 64.0403683,20.6764614 C64.8162495,20.6764614 65.3478337,20.4795307 65.6343485,20.0854119 C65.7774772,19.8707188 65.849299,19.5244812 65.849299,19.0469564 L65.849299,19.0469564 Z" id="Fill-23"></path>
                        <path d="M77.195905,22.4851347 L74.8674891,22.4851347 L74.8674891,16.8444218 C74.8674891,16.2832337 74.7006772,15.8414911 74.3662812,15.5189366 C74.0916079,15.2684614 73.7456277,15.143095 73.3275683,15.143095 C72.9097663,15.143095 72.5573505,15.2684614 72.2708356,15.5189366 C72.1040238,15.6623228 71.9784,15.8414911 71.8947366,16.0564416 C71.8113307,16.2713921 71.7696277,16.5339663 71.7696277,16.8444218 L71.7696277,22.4851347 L69.4414693,22.4851347 L69.4414693,13.1552535 L71.7158257,13.1552535 L71.7158257,14.014798 C72.3246376,13.370204 73.1007762,13.0479069 74.0439842,13.0479069 C74.9629941,13.0479069 75.6976871,13.3225802 76.2465188,13.8716693 C76.8795287,14.5044218 77.195905,15.3876495 77.195905,16.5218673 L77.195905,22.4851347" id="Fill-24"></path>
                    </g>
                </g>
            </g>
        </g>
    </g>
</svg>