<?xml version="1.0" encoding="UTF-8"?>
<svg width="140px" height="20px" viewBox="0 0 140 20" version="1.1" xmlns="http://www.w3.org/2000/svg" xmlns:xlink="http://www.w3.org/1999/xlink">
    <title>5F18A0FA-0566-4A0C-9AC5-DB1899A25FE2</title>
    <defs>
        <polygon id="path-1" points="0.317442623 0.0950819672 12.6095738 0.0950819672 12.6095738 12.6074754 0.317442623 12.6074754"></polygon>
        <polygon id="path-3" points="0 19.904918 139.58459 19.904918 139.58459 0.327868852 0 0.327868852"></polygon>
    </defs>
    <g id="Anasayfa" stroke="none" stroke-width="1" fill="none" fill-rule="evenodd">
        <g transform="translate(-563.000000, -4108.000000)" id="footer">
            <g transform="translate(0.000000, 3646.000000)">
                <g id="markalar" transform="translate(0.000000, 424.000000)">
                    <g id="ucuzabilet" transform="translate(563.000000, 38.000000)">
                        <path d="M0,4.07285246 L1.34852459,4.07285246 L1.34852459,8.4092459 C1.34852459,9.24465574 1.4052459,9.85613115 1.51901639,10.244 C1.69245902,10.8253115 2.11377049,11.196459 2.78229508,11.3571148 C3.28,11.4771148 3.96163934,11.5371148 4.82754098,11.5371148 C5.88360656,11.5371148 6.68885246,11.4571148 7.24360656,11.2967869 C8.18262295,11.0259672 8.72557377,10.5095738 8.87278689,9.74760656 C8.94295082,9.38006557 8.97770492,8.89547541 8.97770492,8.29416393 L8.97770492,4.07285246 L10.3262295,4.07285246 L10.3262295,12.6148197 L8.97770492,12.6148197 L8.97770492,11.341377 L8.89245902,11.341377 C8.60852459,11.8059672 8.25606557,12.1354754 7.83508197,12.3292459 C7.27377049,12.5899016 6.22098361,12.7200656 4.67704918,12.7200656 C3.51737705,12.7200656 2.65836066,12.6499016 2.10032787,12.5099016 C1.08786885,12.2558033 0.464590164,11.7476066 0.230491803,10.9853115 C0.0770491803,10.4810492 0,9.75121311 0,8.79547541 L0,4.07285246" id="Fill-1" fill="#9CA1AE"></path>
                        <path d="M20.1727213,9.53183607 L21.5514098,9.53183607 C21.531082,10.5715082 21.2940328,11.3265902 20.8392787,11.7980656 C20.4851803,12.1652787 19.9704262,12.4226557 19.2953443,12.5698689 C18.8376393,12.6698689 18.0907541,12.7200328 17.0546885,12.7200328 C15.3802623,12.7200328 14.2078033,12.6547869 13.536,12.524623 C12.4497705,12.3141311 11.7061639,11.799377 11.3051803,10.9806885 C11.0012459,10.3524918 10.8491148,9.482 10.8491148,8.36888525 C10.8491148,7.22265574 10.9996066,6.34036066 11.2999344,5.722 C11.691082,4.9167541 12.3828852,4.3967541 13.3753443,4.16298361 C13.9300984,4.03281967 14.871082,3.96757377 16.1976393,3.96757377 C17.6982951,3.96757377 18.7707541,4.05281967 19.4156721,4.22298361 C20.2412459,4.44036066 20.8074754,4.83314754 21.1153443,5.40134426 C21.3356721,5.80560656 21.4661639,6.38036066 21.5061639,7.12593443 L20.0874754,7.12593443 C20.0773115,6.55413115 19.9569836,6.13314754 19.7264918,5.86232787 C19.4992787,5.60167213 19.103541,5.41445902 18.538623,5.30101639 C18.0373115,5.20068852 17.2569836,5.15052459 16.1976393,5.15052459 C14.6671475,5.15052459 13.6628852,5.30921311 13.1851803,5.62691803 C12.5868197,6.0177377 12.2874754,6.96691803 12.2874754,8.47445902 C12.2874754,9.33970492 12.3914098,9.97314754 12.598623,10.3741311 C12.8723934,10.9088852 13.3855082,11.2462623 14.1373115,11.386918 C14.6819016,11.486918 15.5543607,11.537082 16.7540328,11.537082 C17.8668197,11.537082 18.6789508,11.4488852 19.1904262,11.2715082 C19.6179672,11.124623 19.9002623,10.8521639 20.0376393,10.4541311 C20.1176393,10.2203607 20.1625574,9.91281967 20.1727213,9.53183607" id="Fill-3" fill="#9CA1AE"></path>
                        <path d="M21.9553443,4.07285246 L23.3038689,4.07285246 L23.3038689,8.4092459 C23.3038689,9.24465574 23.3605902,9.85613115 23.4743607,10.244 C23.6481311,10.8253115 24.0691148,11.196459 24.7376393,11.3571148 C25.2353443,11.4771148 25.9169836,11.5371148 26.7828852,11.5371148 C27.8389508,11.5371148 28.6441967,11.4571148 29.1989508,11.2967869 C30.1379672,11.0259672 30.680918,10.5095738 30.8278033,9.74760656 C30.8982951,9.38006557 30.9330492,8.89547541 30.9330492,8.29416393 L30.9330492,4.07285246 L32.2815738,4.07285246 L32.2815738,12.6148197 L30.9330492,12.6148197 L30.9330492,11.341377 L30.8478033,11.341377 C30.5638689,11.8059672 30.2114098,12.1354754 29.7904262,12.3292459 C29.2287869,12.5899016 28.1763279,12.7200656 26.6323934,12.7200656 C25.4727213,12.7200656 24.6137049,12.6499016 24.0556721,12.5099016 C23.0432131,12.2558033 22.4199344,11.7476066 22.1858361,10.9853115 C22.0323934,10.4810492 21.9553443,9.75121311 21.9553443,8.79547541 L21.9553443,4.07285246" id="Fill-5" fill="#9CA1AE"></path>
                        <polygon id="Fill-7" fill="#9CA1AE" points="33.0846557 4.07285246 42.3079344 4.07285246 42.3079344 5.27121311 34.7036721 11.4620328 42.3633443 11.4620328 42.3633443 12.6148197 32.7787541 12.6148197 32.7787541 11.301377 40.2928525 5.22596721 33.0846557 5.22596721"></polygon>
                        <path d="M44.022,6.63927869 L42.6233115,6.63927869 C42.6134754,6.48255738 42.6082295,6.35862295 42.6082295,6.26845902 C42.6082295,5.53993443 42.837082,4.99370492 43.2951148,4.62911475 C43.8564262,4.18157377 45.2216721,3.95731148 47.3905246,3.95731148 C49.1315082,3.95731148 50.344623,4.06616393 51.029541,4.28321311 C51.8085574,4.52747541 52.3079016,5.01698361 52.5285574,5.75206557 C52.6456066,6.13993443 52.7108525,6.56419672 52.7239672,7.02518033 C52.7275738,7.18944262 52.7292131,7.5517377 52.7292131,8.11337705 L52.7292131,12.6150164 L51.3957705,12.6150164 L51.4206885,11.6176393 L51.3505246,11.6176393 C50.9262623,12.2192787 50.264623,12.5664918 49.3652787,12.6599344 C48.9780656,12.6999344 48.3528197,12.7199344 47.4908525,12.7199344 C45.8265902,12.7199344 44.7256066,12.6746885 44.1872459,12.5848525 C43.4088852,12.4543607 42.8590492,12.1405902 42.5383934,11.6425574 C42.334459,11.3215738 42.2324918,10.818623 42.2324918,10.1337049 C42.2324918,9.31140984 42.3728197,8.72321311 42.6534754,8.36878689 C42.9806885,7.95436066 43.5308525,7.70059016 44.3026557,7.60681967 C44.7505246,7.55009836 45.5124918,7.52157377 46.5885574,7.52157377 C48.6636393,7.52157377 49.937082,7.60190164 50.4082295,7.76222951 C50.7390492,7.876 51.0279016,8.10157377 51.2754426,8.43927869 L51.3957705,8.43927869 L51.3957705,7.52157377 C51.3957705,6.89337705 51.302,6.41731148 51.1147869,6.09304918 C50.8875738,5.70222951 50.4885574,5.44157377 49.9167541,5.31108197 C49.4390492,5.20091803 48.6351148,5.14583607 47.5056066,5.14583607 C46.1924918,5.14583607 45.3118361,5.20583607 44.8639672,5.32583607 C44.3026557,5.47632787 44.022,5.876 44.022,6.52386885 L44.022,6.63927869 Z M47.4056066,8.72485246 C46.1623279,8.72485246 45.3554426,8.7464918 44.984623,8.79009836 C44.1088852,8.89698361 43.6711803,9.35632787 43.6711803,10.168459 C43.6711803,10.7232131 43.8813443,11.0996066 44.3026557,11.2966557 C44.6400328,11.4569836 45.8249508,11.5369836 47.8567541,11.5369836 C49.4174098,11.5369836 50.3997049,11.4068197 50.8042951,11.1461639 C51.1282295,10.9356721 51.2901967,10.5999344 51.2901967,10.1382951 C51.2901967,9.64714754 51.1000328,9.29960656 50.7190492,9.09567213 C50.254459,8.84845902 49.1498689,8.72485246 47.4056066,8.72485246 L47.4056066,8.72485246 Z" id="Fill-9" fill="#9CA1AE"></path>
                        <g id="Group-13" transform="translate(53.114754, 0.232787)">
                            <mask id="mask-2" fill="white">
                                <use xlink:href="#path-1"></use>
                            </mask>
                            <g id="Clip-12"></g>
                            <path d="M0.317442623,0.0950163934 L3.58137705,0.0950163934 L3.58137705,4.82944262 L3.72006557,4.82944262 C4.1292459,4.14616393 4.76793443,3.72386885 5.63580328,3.56157377 C6.08727869,3.47665574 6.664,3.43436066 7.36629508,3.43436066 C8.60859016,3.43436066 9.60793443,3.52911475 10.364,3.71796721 C11.3246557,3.95731148 11.9633443,4.47042623 12.2797377,5.25763934 C12.4997377,5.80157377 12.6095738,6.716 12.6095738,8.00091803 C12.6095738,9.05796721 12.5518689,9.816 12.4358033,10.2753443 C12.1928525,11.2514098 11.6374426,11.8976393 10.7692459,12.2143607 C10.0630164,12.4766557 8.9597377,12.6074754 7.4587541,12.6074754 C5.94236066,12.6074754 4.89514754,12.4320656 4.31613115,12.0812459 C4.05383607,11.9228852 3.80301639,11.643541 3.564,11.2419016 L3.38432787,11.2419016 L3.38432787,12.3822295 L0.317442623,12.3822295 L0.317442623,0.0950163934 Z M6.44629508,5.89403279 C5.34662295,5.89403279 4.60563934,5.99665574 4.22367213,6.20091803 C3.94596721,6.35140984 3.76465574,6.58091803 3.6797377,6.88944262 C3.61416393,7.12878689 3.58137705,7.54157377 3.58137705,8.12813115 C3.58137705,8.81501639 3.66039344,9.276 3.8187541,9.51140984 C4.10793443,9.936 5.0187541,10.1478033 6.55022951,10.1478033 C7.69219672,10.1478033 8.45022951,10.028459 8.82465574,9.78911475 C9.0482623,9.64255738 9.19711475,9.40518033 9.27022951,9.07731148 C9.3282623,8.83042623 9.35711475,8.42911475 9.35711475,7.87337705 C9.35711475,7.31796721 9.30104918,6.9264918 9.1892459,6.69862295 C8.93088525,6.16255738 8.01645902,5.89403279 6.44629508,5.89403279 L6.44629508,5.89403279 Z" id="Fill-11" fill="#9CA1AE" mask="url(#mask-2)"></path>
                        </g>
                        <mask id="mask-4" fill="white">
                            <use xlink:href="#path-3"></use>
                        </mask>
                        <g id="Clip-15"></g>
                        <path d="M66.1308197,12.615082 L69.3947541,12.615082 L69.3947541,3.89311475 L66.1308197,3.89311475 L66.1308197,12.615082 Z M66.1308197,2.78163934 L69.3947541,2.78163934 L69.3947541,0.327868852 L66.1308197,0.327868852 L66.1308197,2.78163934 Z" id="Fill-14" fill="#9CA1AE" mask="url(#mask-4)"></path>
                        <polygon id="Fill-16" fill="#9CA1AE" mask="url(#mask-4)" points="70.097377 12.6147541 73.3609836 12.6147541 73.3609836 0.327540984 70.097377 0.327540984"></polygon>
                        <path d="M82.3205246,9.82560656 L85.567082,9.82560656 C85.4824918,10.7167541 85.2067541,11.3842951 84.739541,11.8279016 C84.3077377,12.2331475 83.6362623,12.5108525 82.7257705,12.6610164 C81.9965902,12.7806885 80.9162623,12.8403607 79.4847869,12.8403607 C78.1342951,12.8403607 77.1523279,12.7764262 76.5388852,12.649541 C75.3431475,12.406918 74.569377,11.8898689 74.2182295,11.0987213 C73.9713443,10.5318361 73.8480656,9.5977377 73.8480656,8.2977377 C73.8480656,7.13609836 73.9215082,6.3124918 74.0677377,5.8262623 C74.3533115,4.90396721 74.9706885,4.29642623 75.9198689,4.00331148 C76.6526557,3.77937705 77.9451148,3.66757377 79.7975738,3.66757377 C81.2401967,3.66757377 82.2624918,3.71970492 82.864459,3.82363934 C84.1221639,4.04363934 84.9306885,4.60101639 85.2897049,5.49642623 C85.5247869,6.08659016 85.6428197,6.90265574 85.6428197,7.94429508 C85.6428197,8.16429508 85.634623,8.50396721 85.619541,8.96331148 L77.1001967,8.96331148 C77.1001967,9.39544262 77.129377,9.71183607 77.1874098,9.91216393 C77.3031475,10.302 77.6657705,10.5547869 78.2752787,10.6705246 C78.564459,10.7282295 79.0451148,10.757082 79.7165902,10.757082 C80.599541,10.757082 81.259541,10.7033115 81.6959344,10.5951148 C82.0428197,10.5141311 82.2510164,10.2574098 82.3205246,9.82560656 M82.367082,7.17478689 C82.3588852,6.92396721 82.3434754,6.72527869 82.3205246,6.57872131 C82.2510164,6.16560656 81.9077377,5.8977377 81.2903607,5.77413115 C81.0165902,5.72003279 80.534623,5.69314754 79.8434754,5.69314754 C78.5742951,5.69314754 77.7926557,5.82822951 77.4998689,6.09839344 C77.2526557,6.322 77.1198689,6.68068852 77.1001967,7.17478689 L82.367082,7.17478689" id="Fill-17" fill="#9CA1AE" mask="url(#mask-4)"></path>
                        <path d="M87.4207541,1.89045902 L90.6728852,1.89045902 L90.6728852,3.89308197 L95.8351803,3.89308197 L95.8351803,6.22554098 L90.6728852,6.22554098 L90.6728852,8.76619672 C90.6728852,9.43734426 90.7230492,9.86586885 90.823377,10.0511148 C90.9892787,10.3520984 91.3715738,10.5025902 91.9696066,10.5025902 C92.5981311,10.5025902 92.9896066,10.3557049 93.1443607,10.0625902 C93.2292787,9.90455738 93.2715738,9.68259016 93.2715738,9.39701639 L93.2715738,8.88193443 L96.2463279,8.88193443 C96.238459,9.54586885 96.2056721,10.0432459 96.1479672,10.375377 C95.908623,11.8143934 94.9673115,12.6111148 93.3237049,12.7652131 C92.7912459,12.815377 92.2505902,12.8402951 91.703377,12.8402951 C90.4725574,12.8402951 89.5791148,12.7501311 89.0237049,12.5688197 C88.1863279,12.2986557 87.6882951,11.7583279 87.5305902,10.9481639 C87.4568197,10.5661967 87.4207541,9.83898361 87.4207541,8.76619672 L87.4207541,6.22554098 L85.7020656,6.22554098 L85.7020656,3.89308197 L87.4207541,3.89308197 L87.4207541,1.89045902" id="Fill-18" fill="#9CA1AE" mask="url(#mask-4)"></path>
                        <polygon id="Fill-19" fill="#9CA1AE" mask="url(#mask-4)" points="96.7085246 12.6147541 98.7137705 12.6147541 98.7137705 10.5393443 96.7085246 10.5393443"></polygon>
                        <path d="M108.176689,9.53183607 L109.555377,9.53183607 C109.535049,10.5715082 109.298,11.3265902 108.843246,11.7980656 C108.489148,12.1652787 107.974393,12.4226557 107.299311,12.5698689 C106.841607,12.6698689 106.094721,12.7200328 105.058656,12.7200328 C103.384557,12.7200328 102.21177,12.6547869 101.539967,12.524623 C100.453738,12.3141311 99.7101311,11.799377 99.3091475,10.9806885 C99.0052131,10.3524918 98.853082,9.482 98.853082,8.36888525 C98.853082,7.22265574 99.0035738,6.34036066 99.3039016,5.722 C99.6950492,4.9167541 100.386852,4.3967541 101.379311,4.16298361 C101.934066,4.03281967 102.875049,3.96757377 104.201607,3.96757377 C105.701934,3.96757377 106.774721,4.05281967 107.419639,4.22298361 C108.245213,4.44036066 108.811443,4.83314754 109.119311,5.40134426 C109.339639,5.80560656 109.470131,6.38036066 109.510131,7.12593443 L108.091443,7.12593443 C108.081279,6.55413115 107.960951,6.13314754 107.730459,5.86232787 C107.503246,5.60167213 107.107508,5.41445902 106.54259,5.30101639 C106.041279,5.20068852 105.260951,5.15052459 104.201607,5.15052459 C102.671115,5.15052459 101.66718,5.30921311 101.189148,5.62691803 C100.590787,6.0177377 100.291443,6.96691803 100.291443,8.47445902 C100.291443,9.33970492 100.395377,9.97314754 100.60259,10.3741311 C100.876361,10.9088852 101.389475,11.2462623 102.141279,11.386918 C102.685869,11.486918 103.558,11.537082 104.758,11.537082 C105.870787,11.537082 106.682918,11.4488852 107.194393,11.2715082 C107.621934,11.124623 107.90423,10.8521639 108.041607,10.4541311 C108.121607,10.2203607 108.166525,9.91281967 108.176689,9.53183607" id="Fill-20" fill="#9CA1AE" mask="url(#mask-4)"></path>
                        <path d="M115.33859,3.9675082 C116.728754,3.9675082 117.739902,4.0127541 118.371377,4.10259016 C119.380557,4.24685246 120.127443,4.66586885 120.612033,5.36095082 C121.053344,5.9927541 121.274328,6.98554098 121.274328,8.33865574 C121.274328,10.4107869 120.703836,11.7193115 119.564492,12.2639016 C119.04318,12.5111148 118.38482,12.653082 117.58941,12.6898033 C117.162197,12.7101311 116.596951,12.7199672 115.894984,12.7199672 C114.611705,12.7199672 113.66318,12.6747213 113.048426,12.5848852 C111.88482,12.4140656 111.071377,11.9563607 110.606459,11.2114426 C110.219246,10.5861967 110.025148,9.64718033 110.025148,8.3937377 C110.025148,6.25177049 110.625148,4.91668852 111.82482,4.38881967 C112.459902,4.10783607 113.631049,3.9675082 115.33859,3.9675082 M115.454328,5.15045902 C114.611705,5.15045902 113.953672,5.18554098 113.478918,5.25570492 C112.606787,5.38619672 112.04023,5.73865574 111.779902,6.3137377 C111.568754,6.77472131 111.464164,7.47504918 111.464164,8.41406557 C111.464164,9.35963934 111.594328,10.0583279 111.854984,10.5094754 C112.145803,11.0137377 112.732361,11.3265246 113.614328,11.4468525 C114.055311,11.5071803 114.77859,11.5370164 115.78482,11.5370164 C116.831049,11.5370164 117.560885,11.4970164 117.975311,11.4166885 C118.757607,11.262918 119.277279,10.9120984 119.534328,10.3642295 C119.734656,9.93963934 119.834984,9.24947541 119.834984,8.2937377 C119.834984,7.54488525 119.770066,6.98029508 119.639574,6.59931148 C119.439246,6.01439344 119.061213,5.62160656 118.506787,5.42127869 C118.005803,5.24062295 116.988098,5.15045902 115.454328,5.15045902" id="Fill-21" fill="#9CA1AE" mask="url(#mask-4)"></path>
                        <path d="M121.633738,4.07285246 L122.997016,4.07285246 L122.997016,5.19580328 C123.321279,4.80137705 123.620951,4.52760656 123.894721,4.37383607 C124.375705,4.10301639 125.236361,3.96760656 126.476361,3.96760656 C127.649148,3.96760656 128.511443,4.03285246 129.06259,4.16301639 C129.731115,4.32039344 130.22882,4.57416393 130.556361,4.92498361 C130.670459,5.04891803 130.790459,5.22432787 130.917344,5.45154098 C131.29177,4.71318033 131.963246,4.25842623 132.932754,4.08793443 C133.386852,4.00793443 134.041934,3.96760656 134.897344,3.96760656 C136.140623,3.96760656 137.036689,4.04793443 137.58423,4.2082623 C138.430131,4.45547541 139.007836,4.91842623 139.318984,5.59678689 C139.496033,5.99154098 139.584557,6.8335082 139.584557,8.12367213 L139.584557,12.6148197 L138.236033,12.6148197 L138.236033,7.80760656 C138.236033,6.76137705 138.078984,6.08465574 137.764885,5.77744262 C137.343574,5.3597377 136.386197,5.15055738 134.892426,5.15055738 C133.946852,5.15055738 133.258328,5.21580328 132.82718,5.34629508 C132.08882,5.57022951 131.639639,6.02793443 131.478984,6.7197377 C131.358656,7.23777049 131.298656,8.08006557 131.298656,9.24629508 L131.298656,12.6148197 L129.949803,12.6148197 L129.949803,7.80760656 C129.949803,7.18596721 129.909803,6.71809836 129.829475,6.404 C129.689148,5.85580328 129.236361,5.4882623 128.471115,5.30104918 C128.060623,5.20104918 127.430131,5.15055738 126.581607,5.15055738 C125.682262,5.15055738 125.007508,5.21416393 124.556361,5.34137705 C123.784557,5.55514754 123.319967,5.9797377 123.16259,6.6144918 C123.042262,7.09580328 122.982262,7.97318033 122.982262,9.24629508 L122.982262,12.6148197 L121.633738,12.6148197 L121.633738,4.07285246" id="Fill-22" fill="#9CA1AE" mask="url(#mask-4)"></path>
                        <polygon id="Fill-23" fill="#9CA1AE" mask="url(#mask-4)" points="69.9544262 15.4314754 73.217377 15.4314754 73.217377 13.4878689 69.9544262 13.4878689"></polygon>
                        <polygon id="Fill-24" fill="#9CA1AE" mask="url(#mask-4)" points="69.9544262 17.7580328 73.217377 17.7580328 73.217377 16.3963934 69.9544262 16.3963934"></polygon>
                        <polygon id="Fill-25" fill="#9CA1AE" mask="url(#mask-4)" points="69.9544262 19.904918 73.217377 19.904918 73.217377 19.124918 69.9544262 19.124918"></polygon>
                    </g>
                </g>
            </g>
        </g>
    </g>
</svg>